<svg width="46" height="52" viewBox="0 0 46 52" fill="none" xmlns="http://www.w3.org/2000/svg">
<g clip-path="url(#clip0)">
<path d="M8.35734 12.5517C11.1073 16.5626 14.5912 23.9395 10.067 27.7931C14.2606 24.2384 15.688 22.516 15.5428 16.7199C15.3573 9.86993 18.2928 5.14338 22.6315 0C14.3896 17.2704 39.2928 14.6122 33.688 33.2196C40.8009 31.2299 35.2606 25.2136 39.0025 21.824C40.2041 27.3763 45.2364 30.8917 45.9541 37.0575C46.817 44.5602 37.3896 50.1912 29.809 51.7955C37.2686 48.0599 32.7202 40.4392 34.6477 38.5124C28.5993 41.5638 31.8251 45.1028 25.067 46.4713C27.0831 35.461 17.2041 39.9831 21.3815 28.6189C9.05089 41.2492 20.6477 51.7719 20.6477 51.7719C20.6477 51.7719 3.00251 54.9177 0.0508937 37.5765C-0.731364 24.2541 10.059 27.101 8.35734 12.5517Z" fill="url(#paint0_radial)"/>
</g>
<defs>
<radialGradient id="paint0_radial" cx="0" cy="0" r="1" gradientUnits="userSpaceOnUse" gradientTransform="translate(23.4973 -9.69809) scale(68.8256 67.1185)">
<stop offset="0.0664" stop-color="#FF8C00"/>
<stop offset="1" stop-color="#DA291C"/>
</radialGradient>
<clipPath id="clip0">
<rect width="46" height="52" fill="white"/>
</clipPath>
</defs>
</svg>
