<svg width="62" height="71" viewBox="0 0 62 71" fill="none" xmlns="http://www.w3.org/2000/svg">
<circle cx="31" cy="31" r="31" fill="#333333"/>
<path d="M31 71L38.7942 57.5L23.2058 57.5L31 71Z" fill="#333333"/>
<path d="M24.1736 23.5179C25.5487 25.6007 27.2906 29.4313 25.0285 31.4325C27.1253 29.5865 27.839 28.6922 27.7664 25.6823C27.6737 22.1253 29.1415 19.6709 31.3109 17C27.1898 25.9682 39.6417 24.5879 36.8392 34.2503C40.3957 33.2171 37.6255 30.0929 39.4965 28.3328C40.0973 31.216 42.6135 33.0415 42.9724 36.2433C43.4039 40.1393 38.6901 43.0634 34.8997 43.8965C38.6296 41.9566 36.3553 37.9993 37.3191 36.9988C34.2948 38.5833 35.9077 40.4211 32.5286 41.1317C33.5367 35.4142 28.5971 37.7625 30.6859 31.8613C24.5204 38.42 30.3189 43.8842 30.3189 43.8842C30.3189 43.8842 21.4962 45.5178 20.0203 36.5128C19.6292 29.5947 25.0245 31.0731 24.1736 23.5179Z" fill="white"/>
</svg>
