<svg width="214" height="36" viewBox="0 0 214 36" fill="none" xmlns="http://www.w3.org/2000/svg">
<path d="M40.4932 26.66C40.4932 26.372 40.4812 26.048 40.4572 25.688C40.4572 25.304 40.5052 24.968 40.6012 24.68C40.6732 24.056 40.9852 23.636 41.5372 23.42C42.1612 23.156 42.7612 23.036 43.3372 23.06C43.9372 23.06 44.5732 23.06 45.2452 23.06H59.5372C60.0172 23.06 60.5332 23.06 61.0852 23.06C61.6372 23.06 62.1292 23.204 62.5612 23.492C62.8732 23.732 63.0772 24.092 63.1732 24.572C63.2692 25.052 63.3172 25.484 63.3172 25.868C63.3652 26.348 63.3892 26.84 63.3892 27.344C63.3892 27.848 63.3892 28.364 63.3892 28.892C63.3412 29.42 63.3292 29.972 63.3532 30.548C63.3772 31.124 63.2932 31.676 63.1012 32.204C62.9812 32.588 62.7532 32.84 62.4172 32.96C62.1052 33.104 61.7692 33.2 61.4092 33.248H60.5812L43.0852 33.176C42.8932 33.176 42.7012 33.188 42.5092 33.212C42.3172 33.236 42.1372 33.224 41.9692 33.176C41.7052 33.104 41.4412 32.984 41.1772 32.816C40.8652 32.624 40.6732 32.324 40.6012 31.916C40.5532 31.772 40.5172 31.616 40.4932 31.448C40.4932 31.28 40.4932 31.136 40.4932 31.016V26.66ZM38.9812 8.84C38.5972 8.672 38.3692 8.42 38.2972 8.084C38.1532 7.724 38.0812 7.364 38.0812 7.004C38.1052 6.644 38.2492 6.32 38.5132 6.032C38.7772 5.744 39.0412 5.552 39.3052 5.456C39.5692 5.36 39.9052 5.312 40.3132 5.312H51.4372C51.9172 5.312 52.3252 5.324 52.6612 5.348C53.0212 5.348 53.3572 5.384 53.6692 5.456C54.2932 5.576 54.7732 5.804 55.1092 6.14C55.4452 6.452 55.5772 6.956 55.5052 7.652C55.4572 7.772 55.4212 7.892 55.3972 8.012C55.3732 8.108 55.3372 8.216 55.2892 8.336C55.0972 8.696 54.8452 8.924 54.5332 9.02C54.2212 9.092 53.8852 9.128 53.5252 9.128C53.3332 9.176 53.1772 9.2 53.0572 9.2C52.9612 9.2 52.8172 9.2 52.6252 9.2C52.4812 9.2 52.3132 9.188 52.1212 9.164C51.9532 9.14 51.7972 9.128 51.6532 9.128H49.3132C49.3132 9.512 49.3012 9.848 49.2772 10.136C49.2532 10.424 49.2412 10.676 49.2412 10.892C49.2412 11.132 49.2412 11.36 49.2412 11.576C49.2412 11.768 49.2652 11.96 49.3132 12.152V12.764C49.3852 12.908 49.5772 13.1 49.8892 13.34C50.0812 13.484 50.2372 13.616 50.3572 13.736C50.4772 13.832 50.5972 13.94 50.7172 14.06C50.8372 14.156 50.9572 14.252 51.0772 14.348C51.1972 14.444 51.3172 14.552 51.4372 14.672C51.5572 14.792 51.6772 14.912 51.7972 15.032C51.9412 15.128 52.0732 15.248 52.1932 15.392C52.2652 15.464 52.3372 15.548 52.4092 15.644C52.5052 15.716 52.5772 15.788 52.6252 15.86L53.0572 16.292C53.2972 16.508 53.5252 16.748 53.7412 17.012C53.9572 17.252 54.1732 17.504 54.3892 17.768C54.8452 18.296 55.1452 18.812 55.2892 19.316C55.3372 19.436 55.3732 19.556 55.3972 19.676C55.4212 19.772 55.4092 19.904 55.3612 20.072C55.2892 20.312 55.1332 20.528 54.8932 20.72C54.4132 20.96 53.9812 21.08 53.5972 21.08C53.3332 21.08 53.0812 21.056 52.8412 21.008C52.6252 20.936 52.3852 20.84 52.1212 20.72C51.8812 20.648 51.6652 20.564 51.4732 20.468C51.3052 20.372 51.1492 20.264 51.0052 20.144C50.7892 19.952 50.5732 19.784 50.3572 19.64C50.1412 19.472 49.9372 19.292 49.7452 19.1C49.5532 18.908 49.3612 18.716 49.1692 18.524C49.0012 18.332 48.8212 18.128 48.6292 17.912C48.3172 17.672 48.0292 17.372 47.7652 17.012C47.5732 16.868 47.3932 16.724 47.2252 16.58C47.0812 16.436 46.9132 16.292 46.7212 16.148L45.3172 17.552C45.1972 17.624 45.1012 17.708 45.0292 17.804C44.9572 17.9 44.8852 17.984 44.8132 18.056C44.6452 18.2 44.4892 18.368 44.3452 18.56C44.2012 18.728 44.0332 18.908 43.8412 19.1C43.6972 19.244 43.5292 19.4 43.3372 19.568C43.1692 19.736 42.9652 19.904 42.7252 20.072C41.7652 20.744 40.8532 21.08 39.9892 21.08H39.7012C39.6052 21.08 39.5092 21.056 39.4132 21.008C38.8612 20.936 38.5132 20.744 38.3692 20.432C38.2012 20.096 38.1532 19.796 38.2252 19.532C38.2972 19.124 38.3932 18.836 38.5132 18.668C38.5852 18.5 38.6812 18.356 38.8012 18.236C38.9212 18.116 39.0532 17.984 39.1972 17.84C39.3172 17.72 39.4252 17.6 39.5212 17.48C39.6172 17.36 39.7252 17.24 39.8452 17.12C39.9652 17 40.1092 16.856 40.2772 16.688C40.4692 16.496 40.6732 16.292 40.8892 16.076C41.1052 15.86 41.3212 15.644 41.5372 15.428C41.7772 15.188 42.0292 14.96 42.2932 14.744C42.5092 14.528 42.7252 14.312 42.9412 14.096C43.1812 13.88 43.4092 13.676 43.6252 13.484L44.3452 12.764V9.128H42.0772C41.9332 9.128 41.7772 9.14 41.6092 9.164C41.4412 9.188 41.2492 9.2 41.0332 9.2C40.8412 9.2 40.6492 9.2 40.4572 9.2C40.2892 9.2 40.1092 9.176 39.9172 9.128C39.7252 9.08 39.5572 9.044 39.4132 9.02C39.2692 8.972 39.1252 8.912 38.9812 8.84ZM54.3892 11.432C54.5092 11.312 54.6412 11.228 54.7852 11.18C54.9532 11.108 55.1692 11.036 55.4332 10.964C55.4812 10.964 55.5532 10.952 55.6492 10.928C55.7452 10.904 55.8892 10.892 56.0812 10.892H57.2692C57.4852 10.892 57.7012 10.88 57.9172 10.856C58.1332 10.832 58.3372 10.82 58.5292 10.82H59.1772V7.004C59.1772 6.884 59.1892 6.764 59.2132 6.644C59.2372 6.5 59.2732 6.368 59.3212 6.248C59.3212 6.128 59.3332 6.032 59.3572 5.96C59.4052 5.888 59.4532 5.792 59.5012 5.672C59.5012 5.6 59.5252 5.528 59.5732 5.456C59.6452 5.36 59.7172 5.252 59.7892 5.132C59.9092 4.964 60.1732 4.796 60.5812 4.628C60.7492 4.58 60.9172 4.556 61.0852 4.556C61.2772 4.556 61.4812 4.556 61.6972 4.556C61.8892 4.604 62.0572 4.664 62.2012 4.736C62.3692 4.784 62.5252 4.844 62.6692 4.916C62.9332 5.036 63.1252 5.24 63.2452 5.528C63.3172 5.648 63.3652 5.792 63.3892 5.96C63.4372 6.128 63.4852 6.32 63.5332 6.536V14.24C63.5332 15.08 63.5332 15.944 63.5332 16.832C63.5332 17.696 63.4972 18.548 63.4252 19.388C63.4252 19.46 63.4132 19.592 63.3892 19.784C63.3892 19.976 63.3652 20.132 63.3172 20.252C63.2692 20.348 63.2212 20.444 63.1732 20.54C63.1492 20.636 63.1012 20.744 63.0292 20.864C62.8852 21.08 62.6932 21.248 62.4532 21.368C62.1652 21.56 61.8172 21.656 61.4092 21.656C61.0252 21.656 60.6292 21.536 60.2212 21.296C59.8852 21.056 59.6932 20.816 59.6452 20.576C59.5732 20.456 59.5012 20.336 59.4292 20.216C59.3572 20.072 59.3212 19.94 59.3212 19.82C59.2732 19.676 59.2492 19.544 59.2492 19.424C59.2492 19.304 59.2252 19.172 59.1772 19.028V14.816H57.2692C56.9332 14.816 56.6092 14.804 56.2972 14.78C56.0092 14.756 55.7212 14.744 55.4332 14.744C54.8572 14.672 54.4372 14.396 54.1732 13.916C54.0292 13.7 53.9572 13.412 53.9572 13.052C53.9572 12.86 53.9692 12.68 53.9932 12.512C54.0172 12.344 54.0292 12.2 54.0292 12.08C54.1012 11.816 54.2212 11.6 54.3892 11.432ZM46.7932 27.056C46.6012 27.08 46.3732 27.092 46.1092 27.092C45.8692 27.092 45.6292 27.116 45.3892 27.164C45.1492 27.188 44.9452 27.248 44.7772 27.344C44.6092 27.44 44.5132 27.608 44.4892 27.848C44.4892 27.992 44.4892 28.148 44.4892 28.316C44.4892 28.46 44.5132 28.604 44.5612 28.748V29.036C44.5612 29.18 44.6092 29.252 44.7052 29.252C44.7052 29.3 44.7772 29.324 44.9212 29.324C44.9692 29.372 45.0172 29.396 45.0652 29.396C45.1372 29.396 45.1972 29.396 45.2452 29.396H56.0092C56.2012 29.396 56.3692 29.384 56.5132 29.36C56.6572 29.336 56.8132 29.348 56.9812 29.396H57.7732C58.1092 29.396 58.4092 29.36 58.6732 29.288C58.9612 29.24 59.1292 29.036 59.1772 28.676V28.064C59.1772 27.776 59.1052 27.56 58.9612 27.416C58.8412 27.296 58.7332 27.212 58.6372 27.164C58.5652 27.092 58.4572 27.056 58.3132 27.056H46.7932ZM65.93 19.712C65.594 19.52 65.33 19.232 65.138 18.848C64.946 18.464 64.922 18.032 65.066 17.552C65.186 17.312 65.294 17.072 65.39 16.832C65.486 16.592 65.606 16.376 65.75 16.184C66.182 15.464 66.686 14.816 67.262 14.24C67.862 13.64 68.402 12.992 68.882 12.296C69.458 11.6 69.974 10.952 70.43 10.352C70.91 9.752 71.426 9.068 71.978 8.3C71.954 8.06 71.942 7.82 71.942 7.58C71.942 7.388 71.942 7.196 71.942 7.004C71.942 6.812 71.954 6.656 71.978 6.536C71.978 6.344 72.002 6.176 72.05 6.032C72.098 5.864 72.146 5.684 72.194 5.492C72.266 5.156 72.458 4.892 72.77 4.7C72.914 4.604 73.07 4.532 73.238 4.484C73.406 4.436 73.634 4.412 73.922 4.412C74.114 4.412 74.306 4.424 74.498 4.448C74.69 4.448 74.858 4.472 75.002 4.52C75.194 4.568 75.374 4.676 75.542 4.844C75.734 5.012 75.878 5.192 75.974 5.384C76.022 5.504 76.058 5.636 76.082 5.78C76.106 5.924 76.13 6.056 76.154 6.176C76.178 6.32 76.19 6.476 76.19 6.644V8.408C76.334 8.648 76.478 8.9 76.622 9.164C76.742 9.38 76.874 9.608 77.018 9.848C77.186 10.088 77.33 10.292 77.45 10.46C77.738 10.844 77.99 11.204 78.206 11.54C78.446 11.876 78.71 12.188 78.998 12.476C79.286 12.812 79.562 13.148 79.826 13.484C80.114 13.82 80.354 14.144 80.546 14.456C80.738 14.696 80.918 14.924 81.086 15.14C81.254 15.332 81.434 15.548 81.626 15.788C81.77 16.1 81.902 16.4 82.022 16.688C82.166 16.976 82.262 17.264 82.31 17.552C82.358 17.84 82.37 18.092 82.346 18.308C82.346 18.524 82.274 18.728 82.13 18.92C81.89 19.352 81.59 19.616 81.23 19.712C81.038 19.808 80.846 19.88 80.654 19.928C80.462 19.952 80.234 19.94 79.97 19.892C79.466 19.772 79.082 19.58 78.818 19.316C78.338 18.86 77.894 18.392 77.486 17.912C77.078 17.432 76.706 16.952 76.37 16.472C75.962 15.992 75.566 15.476 75.182 14.924C74.822 14.372 74.438 13.82 74.03 13.268C73.838 13.532 73.634 13.796 73.418 14.06C73.202 14.324 73.022 14.552 72.878 14.744C72.686 14.888 72.506 15.056 72.338 15.248C72.17 15.44 71.99 15.656 71.798 15.896C71.606 16.088 71.39 16.34 71.15 16.652C70.934 16.94 70.73 17.18 70.538 17.372C70.322 17.612 70.094 17.876 69.854 18.164C69.614 18.428 69.362 18.68 69.098 18.92C68.858 19.16 68.606 19.376 68.342 19.568C68.078 19.736 67.802 19.844 67.514 19.892C67.226 19.988 66.95 20.012 66.686 19.964C66.446 19.892 66.194 19.808 65.93 19.712ZM67.73 32.744C67.634 32.648 67.538 32.528 67.442 32.384C67.37 32.24 67.31 32.072 67.262 31.88C67.262 31.688 67.238 31.508 67.19 31.34C67.166 31.196 67.154 31.052 67.154 30.908C67.154 30.716 67.142 30.5 67.118 30.26C67.118 30.044 67.094 29.84 67.046 29.648V28.352V26.516C67.046 26.228 67.046 25.928 67.046 25.616C67.07 25.28 67.106 24.968 67.154 24.68C67.202 24.488 67.25 24.32 67.298 24.176C67.346 24.032 67.43 23.9 67.55 23.78C67.646 23.636 67.754 23.528 67.874 23.456C68.018 23.384 68.162 23.3 68.306 23.204C68.93 22.94 69.614 22.808 70.358 22.808H86.63C86.894 22.808 87.062 22.832 87.134 22.88C87.206 22.904 87.362 22.916 87.602 22.916C87.866 22.964 88.094 23.012 88.286 23.06C88.502 23.108 88.73 23.192 88.97 23.312C89.45 23.48 89.774 23.804 89.942 24.284C89.99 24.476 90.038 24.692 90.086 24.932C90.134 25.148 90.182 25.388 90.23 25.652V27.092V28.676C90.23 28.964 90.23 29.24 90.23 29.504C90.23 29.792 90.206 30.068 90.158 30.332C90.158 30.908 90.05 31.388 89.834 31.772C89.834 31.916 89.81 32.048 89.762 32.168C89.738 32.288 89.702 32.42 89.654 32.564C89.558 32.708 89.366 32.84 89.078 32.96C88.934 33.008 88.79 33.044 88.646 33.068C88.526 33.116 88.406 33.14 88.286 33.14H87.422H69.89C69.698 33.092 69.518 33.056 69.35 33.032C69.182 33.032 69.002 33.032 68.81 33.032C68.402 33.032 68.114 32.936 67.946 32.744H67.73ZM71.33 28.856C71.33 28.952 71.342 29.012 71.366 29.036C71.414 29.06 71.438 29.096 71.438 29.144C71.486 29.144 71.534 29.156 71.582 29.18C71.63 29.228 71.678 29.252 71.726 29.252H72.014H72.518H83.03H84.002C84.146 29.3 84.278 29.324 84.398 29.324C84.518 29.324 84.65 29.324 84.794 29.324C84.938 29.324 85.082 29.324 85.226 29.324C85.37 29.324 85.514 29.3 85.658 29.252C85.778 29.252 85.91 29.18 86.054 29.036C86.054 28.988 86.066 28.928 86.09 28.856C86.138 28.76 86.162 28.664 86.162 28.568V27.884C86.162 27.74 86.15 27.62 86.126 27.524C86.126 27.404 86.066 27.296 85.946 27.2C85.826 27.008 85.598 26.912 85.262 26.912H84.506H75.146H73.67H72.122H71.618C71.57 26.96 71.522 27.008 71.474 27.056C71.45 27.104 71.438 27.188 71.438 27.308C71.39 27.404 71.354 27.488 71.33 27.56C71.33 27.608 71.33 27.68 71.33 27.776V28.28V28.352V28.568V28.856ZM90.302 18.416C90.254 18.584 90.206 18.74 90.158 18.884C90.11 19.004 90.086 19.112 90.086 19.208C90.038 19.328 89.99 19.448 89.942 19.568C89.894 19.688 89.822 19.796 89.726 19.892C89.678 19.988 89.606 20.084 89.51 20.18C89.414 20.276 89.282 20.372 89.114 20.468C88.97 20.588 88.802 20.672 88.61 20.72C88.442 20.744 88.286 20.756 88.142 20.756C87.95 20.756 87.758 20.72 87.566 20.648C87.374 20.576 87.182 20.492 86.99 20.396C86.846 20.276 86.714 20.156 86.594 20.036C86.498 19.892 86.402 19.748 86.306 19.604C86.114 19.172 86.018 18.776 86.018 18.416C85.97 18.176 85.934 17.96 85.91 17.768C85.886 17.552 85.85 17.324 85.802 17.084C85.802 16.82 85.802 16.592 85.802 16.4C85.826 16.184 85.862 15.956 85.91 15.716V14.456V11.324V6.932C85.91 6.788 85.922 6.656 85.946 6.536C85.994 6.392 86.018 6.272 86.018 6.176C86.138 5.744 86.33 5.348 86.594 4.988C86.69 4.844 86.81 4.724 86.954 4.628C87.098 4.532 87.242 4.46 87.386 4.412C87.578 4.364 87.77 4.34 87.962 4.34C88.154 4.316 88.346 4.304 88.538 4.304C88.946 4.424 89.234 4.544 89.402 4.664C89.594 4.76 89.762 4.928 89.906 5.168C90.074 5.504 90.182 5.888 90.23 6.32C90.302 6.752 90.338 7.196 90.338 7.652C90.362 8.084 90.362 8.528 90.338 8.984C90.314 9.44 90.302 9.86 90.302 10.244V16.76V18.416ZM116.174 30.656C116.558 30.704 116.894 30.8 117.182 30.944C117.47 31.088 117.674 31.352 117.794 31.736C118.082 32.6 117.77 33.212 116.858 33.572C116.57 33.692 116.282 33.764 115.994 33.788C115.706 33.812 115.43 33.824 115.166 33.824H98.4262C97.9462 33.824 97.4422 33.812 96.9142 33.788C96.4102 33.788 95.8942 33.776 95.3662 33.752C94.8622 33.728 94.4422 33.548 94.1062 33.212C93.7702 32.876 93.5782 32.432 93.5302 31.88L93.4222 29.36C93.3982 29.096 93.3982 28.784 93.4222 28.424C93.4462 28.064 93.5662 27.764 93.7822 27.524C94.1182 27.164 94.5622 26.936 95.1142 26.84C95.6902 26.744 96.2422 26.696 96.7702 26.696C97.1062 26.696 97.6582 26.696 98.4262 26.696C99.2182 26.696 100.286 26.708 101.63 26.732C102.974 26.732 104.63 26.732 106.598 26.732C108.59 26.732 110.954 26.732 113.69 26.732V25.436H95.9782C95.7382 25.436 95.5222 25.436 95.3302 25.436C95.1382 25.436 94.9462 25.412 94.7542 25.364C94.5382 25.316 94.3462 25.268 94.1782 25.22C94.0102 25.172 93.8662 25.052 93.7462 24.86C93.4102 24.356 93.3262 23.84 93.4942 23.312C93.5662 23.12 93.6742 22.976 93.8182 22.88C93.9622 22.76 94.1302 22.664 94.3222 22.592C94.5142 22.52 94.6942 22.472 94.8622 22.448C95.0542 22.424 95.2222 22.4 95.3662 22.376C95.7262 22.304 96.0982 22.268 96.4822 22.268C96.8182 22.268 97.1782 22.268 97.5622 22.268C97.9702 22.268 98.4502 22.28 99.0022 22.304C99.5542 22.304 100.19 22.304 100.91 22.304C101.654 22.304 102.518 22.304 103.502 22.304C103.502 21.968 103.514 21.644 103.538 21.332C103.562 20.996 103.574 20.636 103.574 20.252C103.022 20.252 102.53 20.252 102.098 20.252C101.69 20.252 101.282 20.252 100.874 20.252C100.49 20.252 100.094 20.252 99.6862 20.252C99.2782 20.228 98.8222 20.204 98.3182 20.18C98.1022 20.18 97.7902 20.168 97.3822 20.144C96.9742 20.12 96.5422 20.108 96.0862 20.108C95.6302 20.084 95.1982 20.072 94.7902 20.072C94.4062 20.048 94.1302 20.036 93.9622 20.036C93.5782 19.988 93.2662 19.94 93.0262 19.892C92.8102 19.844 92.5462 19.676 92.2342 19.388C92.0662 19.244 91.9462 19.1 91.8742 18.956C91.8022 18.788 91.7662 18.572 91.7662 18.308C91.7662 17.78 91.9222 17.36 92.2342 17.048C92.4022 16.856 92.6302 16.712 92.9182 16.616C93.2062 16.52 93.4822 16.46 93.7462 16.436C94.0102 16.388 94.2382 16.364 94.4302 16.364C94.6462 16.364 94.7662 16.364 94.7902 16.364H115.382C115.742 16.364 116.102 16.364 116.462 16.364C116.822 16.364 117.17 16.376 117.506 16.4C117.842 16.424 118.166 16.472 118.478 16.544C118.814 16.592 119.114 16.736 119.378 16.976C119.642 17.168 119.786 17.396 119.81 17.66C119.858 17.9 119.882 18.164 119.882 18.452C119.882 18.812 119.774 19.088 119.558 19.28C119.366 19.472 119.09 19.628 118.73 19.748C118.25 19.94 117.71 20.048 117.11 20.072C116.534 20.072 116.006 20.084 115.526 20.108C114.326 20.156 113.162 20.192 112.034 20.216C110.93 20.24 109.766 20.252 108.542 20.252C108.566 20.588 108.566 20.936 108.542 21.296C108.518 21.632 108.506 21.968 108.506 22.304H114.05C115.274 22.304 116.21 22.496 116.858 22.88C117.506 23.24 117.83 23.84 117.83 24.68V27.236C117.83 27.572 117.746 27.908 117.578 28.244C117.434 28.556 117.17 28.82 116.786 29.036C116.474 29.228 116.162 29.324 115.85 29.324C115.538 29.348 115.226 29.36 114.914 29.36H97.8502V30.656H116.174ZM113.906 11.324C114.338 11.516 114.722 11.744 115.058 12.008C115.418 12.248 115.778 12.512 116.138 12.8C116.546 13.112 116.702 13.484 116.606 13.916C116.534 14.324 116.258 14.696 115.778 15.032C115.562 15.176 115.262 15.248 114.878 15.248C114.518 15.248 114.122 15.212 113.69 15.14C113.282 15.044 112.862 14.924 112.43 14.78C112.022 14.636 111.65 14.492 111.314 14.348C110.834 14.132 110.33 13.916 109.802 13.7C109.274 13.46 108.734 13.22 108.182 12.98C107.654 12.74 107.138 12.512 106.634 12.296C106.13 12.056 105.662 11.84 105.23 11.648C104.846 11.84 104.474 12.008 104.114 12.152C103.802 12.272 103.49 12.404 103.178 12.548C102.89 12.692 102.65 12.8 102.458 12.872C101.834 13.184 101.27 13.436 100.766 13.628C100.262 13.82 99.6982 14.048 99.0742 14.312C98.6182 14.504 98.1382 14.708 97.6342 14.924C97.1542 15.14 96.6502 15.224 96.1222 15.176C95.6902 15.152 95.2702 15.056 94.8622 14.888C94.4782 14.696 94.2382 14.384 94.1422 13.952C94.0702 13.496 94.1542 13.1 94.3942 12.764C94.6582 12.404 95.0302 12.104 95.5102 11.864L97.9582 10.676C98.7742 10.268 99.5902 9.872 100.406 9.488C101.222 9.08 102.098 8.672 103.034 8.264H99.2542C98.8942 8.264 98.5702 8.276 98.2822 8.3C98.0182 8.3 97.7062 8.276 97.3462 8.228C97.0822 8.204 96.7942 8.192 96.4822 8.192C96.1942 8.192 95.9182 8.132 95.6542 8.012C95.3662 7.868 95.1502 7.664 95.0062 7.4C94.8862 7.184 94.8142 6.932 94.7902 6.644C94.7662 6.356 94.8142 6.092 94.9342 5.852C95.1022 5.516 95.4022 5.264 95.8342 5.096C96.2662 4.904 96.6982 4.808 97.1302 4.808H97.9582C98.3182 4.832 98.5822 4.844 98.7502 4.844C98.9422 4.82 99.2302 4.808 99.6142 4.808H111.818C112.202 4.808 112.634 4.808 113.114 4.808C113.618 4.784 114.098 4.808 114.554 4.88C115.01 4.952 115.418 5.096 115.778 5.312C116.138 5.528 116.378 5.864 116.498 6.32C116.642 6.872 116.546 7.292 116.21 7.58C115.874 7.844 115.442 8.036 114.914 8.156C114.386 8.276 113.822 8.348 113.222 8.372C112.622 8.372 112.142 8.36 111.782 8.336C111.062 8.312 110.438 8.324 109.91 8.372C109.406 8.42 108.818 8.42 108.146 8.372C108.626 8.636 109.118 8.9 109.622 9.164C110.15 9.404 110.69 9.692 111.242 10.028C111.698 10.22 112.142 10.436 112.574 10.676C113.006 10.892 113.45 11.108 113.906 11.324ZM155.173 18.956C155.125 19.1 155.089 19.22 155.065 19.316C155.041 19.388 154.981 19.46 154.885 19.532C154.693 19.748 154.441 19.904 154.129 20C153.985 20.048 153.841 20.084 153.697 20.108C153.577 20.108 153.433 20.12 153.265 20.144C153.097 20.144 152.953 20.156 152.833 20.18C152.737 20.204 152.629 20.216 152.509 20.216H131.233C130.873 20.216 130.489 20.156 130.081 20.036C129.697 19.892 129.409 19.652 129.217 19.316C129.025 19.028 128.929 18.692 128.929 18.308C128.929 17.924 129.037 17.588 129.253 17.3C129.541 16.988 129.841 16.748 130.153 16.58C130.729 16.436 131.269 16.364 131.773 16.364H133.321C133.657 16.316 133.945 16.292 134.185 16.292C134.449 16.292 134.689 16.292 134.905 16.292H136.273C136.513 16.292 136.729 16.292 136.921 16.292C137.137 16.292 137.377 16.316 137.641 16.364H139.585V14.204H135.733C135.397 14.204 135.025 14.204 134.617 14.204C134.233 14.204 133.849 14.18 133.465 14.132C133.081 14.084 132.721 13.988 132.385 13.844C132.049 13.676 131.773 13.448 131.557 13.16C131.293 12.824 131.101 12.44 130.981 12.008C130.885 11.576 130.837 11.156 130.837 10.748C130.837 10.148 130.825 9.56 130.801 8.984C130.801 8.384 130.813 7.772 130.837 7.148C130.885 6.572 131.005 6.02 131.197 5.492C131.413 4.964 131.797 4.568 132.349 4.304C132.637 4.136 132.889 4.052 133.105 4.052C133.681 4.052 134.173 4.172 134.581 4.412C134.989 4.652 135.265 5.036 135.409 5.564C135.529 5.948 135.601 6.32 135.625 6.68C135.649 7.04 135.685 7.412 135.733 7.796C135.733 7.988 135.733 8.24 135.733 8.552C135.733 8.84 135.757 9.128 135.805 9.416C135.853 9.704 135.937 9.956 136.057 10.172C136.201 10.388 136.405 10.496 136.669 10.496C137.437 10.592 138.193 10.616 138.937 10.568C139.681 10.52 140.437 10.496 141.205 10.496H150.781C151.405 10.496 152.005 10.604 152.581 10.82C153.157 11.012 153.505 11.456 153.625 12.152C153.769 12.824 153.601 13.328 153.121 13.664C152.665 13.976 152.137 14.156 151.537 14.204H144.301C144.301 14.324 144.301 14.516 144.301 14.78C144.325 15.02 144.361 15.548 144.409 16.364H146.497C146.881 16.316 147.241 16.292 147.577 16.292C147.913 16.292 148.273 16.292 148.657 16.292H150.673C151.009 16.292 151.333 16.292 151.645 16.292C151.957 16.292 152.245 16.316 152.509 16.364C152.701 16.364 152.905 16.388 153.121 16.436C153.337 16.46 153.529 16.496 153.697 16.544C154.153 16.592 154.537 16.772 154.849 17.084C155.137 17.276 155.293 17.564 155.317 17.948C155.341 18.308 155.293 18.644 155.173 18.956ZM154.669 25.328C154.669 25.52 154.645 25.7 154.597 25.868C154.573 26.036 154.501 26.18 154.381 26.3C154.261 26.42 154.129 26.528 153.985 26.624C153.841 26.696 153.709 26.768 153.589 26.84C153.373 26.888 153.169 26.924 152.977 26.948C152.809 26.972 152.629 27.008 152.437 27.056H151.789C151.909 27.152 152.029 27.236 152.149 27.308C152.269 27.356 152.365 27.416 152.437 27.488C152.989 28.016 153.265 28.724 153.265 29.612C153.265 30.044 153.193 30.44 153.049 30.8C152.929 31.184 152.725 31.496 152.437 31.736C152.149 32.024 151.801 32.264 151.393 32.456C150.985 32.648 150.541 32.84 150.061 33.032C149.581 33.176 149.065 33.284 148.513 33.356C147.961 33.452 147.337 33.524 146.641 33.572C145.945 33.62 145.261 33.656 144.589 33.68C143.917 33.728 143.197 33.752 142.429 33.752C141.685 33.752 140.953 33.728 140.233 33.68C139.537 33.656 138.865 33.62 138.217 33.572C137.545 33.524 136.921 33.452 136.345 33.356C135.769 33.284 135.241 33.176 134.761 33.032C134.257 32.84 133.801 32.648 133.393 32.456C133.009 32.264 132.661 32.024 132.349 31.736C132.085 31.496 131.881 31.184 131.737 30.8C131.617 30.44 131.557 30.044 131.557 29.612C131.557 28.844 131.821 28.196 132.349 27.668C132.685 27.452 132.997 27.212 133.285 26.948H132.673C132.193 27.068 131.785 27.056 131.449 26.912C131.185 26.84 130.885 26.708 130.549 26.516C130.309 26.372 130.153 26.072 130.081 25.616C130.057 25.04 130.249 24.608 130.657 24.32C131.089 24.008 131.785 23.852 132.745 23.852H139.729V23.168C139.729 23.024 139.741 22.892 139.765 22.772C139.789 22.652 139.801 22.532 139.801 22.412C139.873 22.1 140.017 21.812 140.233 21.548C140.353 21.404 140.473 21.296 140.593 21.224C140.713 21.128 140.905 21.032 141.169 20.936C141.985 20.696 142.681 20.732 143.257 21.044C143.617 21.212 143.881 21.416 144.049 21.656C144.241 21.896 144.385 22.16 144.481 22.448C144.481 22.544 144.481 22.664 144.481 22.808C144.505 22.928 144.517 23.048 144.517 23.168C144.517 23.288 144.517 23.408 144.517 23.528C144.517 23.624 144.505 23.732 144.481 23.852H152.581C152.917 23.852 153.253 23.924 153.589 24.068C153.901 24.164 154.153 24.308 154.345 24.5C154.513 24.644 154.621 24.92 154.669 25.328ZM148.261 30.368C148.429 30.272 148.561 30.176 148.657 30.08C148.753 29.984 148.801 29.828 148.801 29.612C148.801 29.348 148.621 29.132 148.261 28.964C148.045 28.844 147.805 28.772 147.541 28.748C147.301 28.724 147.025 28.688 146.713 28.64C146.401 28.592 146.077 28.568 145.741 28.568C145.405 28.544 145.057 28.532 144.697 28.532H140.161C139.777 28.532 139.417 28.544 139.081 28.568C138.769 28.568 138.481 28.592 138.217 28.64C137.929 28.688 137.665 28.724 137.425 28.748C137.185 28.772 136.981 28.844 136.813 28.964C136.597 29.036 136.453 29.12 136.381 29.216C136.309 29.336 136.273 29.468 136.273 29.612C136.273 29.78 136.309 29.912 136.381 30.008C136.453 30.128 136.597 30.224 136.813 30.296C136.981 30.344 137.185 30.38 137.425 30.404C137.665 30.452 137.929 30.5 138.217 30.548C138.481 30.548 138.769 30.56 139.081 30.584C139.417 30.632 139.777 30.656 140.161 30.656H142.429C142.837 30.656 143.221 30.656 143.581 30.656C143.965 30.656 144.337 30.68 144.697 30.728C145.057 30.728 145.405 30.728 145.741 30.728C146.077 30.728 146.401 30.704 146.713 30.656C147.025 30.656 147.301 30.632 147.541 30.584C147.805 30.56 148.045 30.488 148.261 30.368ZM170.415 5.888C171.399 5.888 172.239 5.972 172.935 6.14C173.631 6.308 174.183 6.74 174.591 7.436C174.975 8.084 175.035 8.732 174.771 9.38C174.435 10.052 173.835 10.448 172.971 10.568C172.395 10.664 171.735 10.724 170.991 10.748C170.247 10.748 169.263 10.724 168.039 10.676C168.015 11.084 168.003 11.516 168.003 11.972C168.003 12.404 168.003 12.812 168.003 13.196C168.003 13.556 168.003 13.868 168.003 14.132C168.027 14.396 168.039 14.564 168.039 14.636V18.668C168.039 18.86 168.051 19.124 168.075 19.46C168.099 19.772 168.123 20.012 168.147 20.18C168.339 20.372 168.603 20.66 168.939 21.044C169.275 21.404 169.539 21.704 169.731 21.944C169.971 22.232 170.211 22.532 170.451 22.844C170.715 23.156 170.979 23.504 171.243 23.888C171.435 24.104 171.603 24.32 171.747 24.536C171.891 24.752 172.023 24.944 172.143 25.112C172.599 25.76 173.067 26.468 173.547 27.236C174.027 28.004 174.351 28.772 174.519 29.54C174.591 29.876 174.591 30.236 174.519 30.62C174.471 31.028 174.303 31.364 174.015 31.628C173.607 31.988 173.151 32.168 172.647 32.168C172.095 32.168 171.567 32.012 171.063 31.7C170.559 31.412 170.151 31.1 169.839 30.764C169.383 30.284 168.951 29.78 168.543 29.252C168.159 28.724 167.775 28.208 167.391 27.704C167.127 27.32 166.851 26.948 166.563 26.588C166.275 26.204 165.975 25.832 165.663 25.472C165.615 25.376 165.567 25.316 165.519 25.292C165.519 25.316 165.507 25.328 165.483 25.328C165.483 25.328 165.483 25.34 165.483 25.364C165.363 25.556 165.219 25.748 165.051 25.94C164.907 26.108 164.775 26.288 164.655 26.48C164.463 26.696 164.283 26.924 164.115 27.164C163.971 27.38 163.827 27.596 163.683 27.812C163.347 28.316 163.011 28.808 162.675 29.288C162.339 29.792 161.955 30.26 161.523 30.692C160.491 31.724 159.519 32.24 158.607 32.24C158.367 32.24 158.139 32.204 157.923 32.132C157.371 31.988 156.999 31.652 156.807 31.124C156.615 30.716 156.543 30.272 156.591 29.792C156.663 29.312 156.783 28.892 156.951 28.532C157.143 28.124 157.359 27.74 157.599 27.38C157.839 27.02 158.091 26.66 158.355 26.3C158.523 26.084 158.679 25.868 158.823 25.652C158.991 25.436 159.135 25.22 159.255 25.004C159.471 24.644 159.759 24.224 160.119 23.744C160.503 23.24 160.875 22.76 161.235 22.304C161.619 21.824 161.967 21.392 162.279 21.008C162.591 20.624 162.807 20.348 162.927 20.18V10.676H160.731C159.819 10.676 159.183 10.676 158.823 10.676C158.487 10.652 158.235 10.616 158.067 10.568C157.155 10.424 156.543 9.908 156.231 9.02C155.967 8.252 156.063 7.58 156.519 7.004C156.927 6.428 157.503 6.068 158.247 5.924C158.367 5.9 158.487 5.888 158.607 5.888C158.727 5.864 158.859 5.852 159.003 5.852C159.243 5.852 159.411 5.864 159.507 5.888H170.415ZM182.547 30.152C182.499 30.44 182.463 30.716 182.439 30.98C182.415 31.268 182.355 31.556 182.259 31.844C182.211 31.94 182.175 32.024 182.151 32.096C182.127 32.168 182.091 32.252 182.043 32.348C181.875 32.684 181.659 32.948 181.395 33.14C180.843 33.476 180.231 33.56 179.559 33.392C179.175 33.32 178.863 33.176 178.623 32.96C178.407 32.768 178.239 32.516 178.119 32.204C178.023 31.916 177.939 31.628 177.867 31.34C177.819 31.052 177.795 30.8 177.795 30.584C177.795 30.368 177.795 30.248 177.795 30.224V8.372C177.795 8.084 177.795 7.772 177.795 7.436C177.795 7.1 177.819 6.764 177.867 6.428C177.915 6.092 177.987 5.78 178.083 5.492C178.179 5.204 178.311 4.976 178.479 4.808C178.743 4.544 179.019 4.388 179.307 4.34C179.595 4.268 179.907 4.232 180.243 4.232C180.651 4.232 181.023 4.352 181.359 4.592C181.719 4.808 181.971 5.12 182.115 5.528C182.331 6.032 182.451 6.56 182.475 7.112C182.499 7.664 182.523 8.216 182.547 8.768V8.948C182.595 10.796 182.607 12.692 182.583 14.636C182.559 16.58 182.547 18.416 182.547 20.144V28.856C182.547 29.072 182.547 29.288 182.547 29.504C182.571 29.72 182.571 29.936 182.547 30.152ZM194.854 5.06C194.878 5.06 194.998 5.06 195.214 5.06C195.454 5.06 195.706 5.06 195.97 5.06C196.258 5.06 196.51 5.072 196.726 5.096C196.966 5.096 197.086 5.096 197.086 5.096C197.854 5.096 198.478 5.24 198.958 5.528C199.438 5.792 199.81 6.128 200.074 6.536C200.362 6.92 200.554 7.34 200.65 7.796C200.746 8.252 200.794 8.66 200.794 9.02V27.272C200.794 27.296 200.782 27.44 200.758 27.704C200.758 27.944 200.734 28.232 200.686 28.568C200.638 28.904 200.566 29.252 200.47 29.612C200.398 29.972 200.29 30.272 200.146 30.512C199.954 30.8 199.666 31.028 199.282 31.196C198.922 31.364 198.55 31.484 198.166 31.556C197.806 31.652 197.47 31.7 197.158 31.7C196.846 31.724 196.678 31.736 196.654 31.736H190.138C189.922 31.736 189.586 31.712 189.13 31.664C188.698 31.64 188.242 31.556 187.762 31.412C187.282 31.292 186.826 31.1 186.394 30.836C185.986 30.572 185.686 30.212 185.494 29.756C185.158 28.964 184.966 28.136 184.918 27.272C184.894 26.408 184.894 25.556 184.918 24.716V11.756C184.918 11.684 184.894 11.444 184.846 11.036C184.822 10.604 184.81 10.124 184.81 9.596C184.81 9.044 184.846 8.492 184.918 7.94C184.99 7.364 185.122 6.884 185.314 6.5C185.554 6.02 185.878 5.672 186.286 5.456C186.694 5.24 187.138 5.108 187.618 5.06C188.122 4.988 188.626 4.976 189.13 5.024C189.658 5.048 190.138 5.06 190.57 5.06C191.338 5.06 192.058 5.072 192.73 5.096C193.426 5.096 194.134 5.084 194.854 5.06ZM210.442 15.392C210.562 15.392 210.67 15.404 210.766 15.428C210.886 15.452 211.006 15.464 211.126 15.464C211.246 15.488 211.378 15.512 211.522 15.536C211.666 15.536 211.81 15.548 211.954 15.572C212.218 15.62 212.482 15.716 212.746 15.86C213.01 15.98 213.202 16.172 213.322 16.436C213.49 16.7 213.574 17.012 213.574 17.372C213.574 17.564 213.562 17.744 213.538 17.912C213.538 18.056 213.514 18.224 213.466 18.416C213.418 18.608 213.358 18.812 213.286 19.028C213.238 19.244 213.13 19.412 212.962 19.532C212.626 19.772 212.302 19.928 211.99 20C211.606 20.048 211.138 20.06 210.586 20.036C210.034 20.012 209.566 20.012 209.182 20.036C209.158 20.036 209.134 20.048 209.11 20.072H209.074L209.038 20.108V20.216C209.038 20.504 209.038 20.852 209.038 21.26C209.038 21.644 209.038 22.052 209.038 22.484C209.038 22.892 209.038 23.3 209.038 23.708C209.038 24.092 209.038 24.44 209.038 24.752C209.086 26 209.086 27.224 209.038 28.424V28.928C209.038 29.24 209.026 29.576 209.002 29.936C209.002 30.32 208.978 30.692 208.93 31.052C208.882 31.412 208.798 31.748 208.678 32.06C208.558 32.396 208.39 32.672 208.174 32.888C207.886 33.224 207.502 33.392 207.022 33.392C207.022 33.392 206.998 33.38 206.95 33.356C206.374 33.332 205.906 33.164 205.546 32.852C205.21 32.54 204.946 32.156 204.754 31.7C204.586 31.244 204.478 30.764 204.43 30.26C204.382 29.78 204.358 29.348 204.358 28.964V7.58C204.358 7.556 204.358 7.448 204.358 7.256C204.358 7.04 204.382 6.8 204.43 6.536C204.478 6.248 204.55 5.96 204.646 5.672C204.766 5.36 204.922 5.108 205.114 4.916C205.282 4.748 205.522 4.628 205.834 4.556C206.17 4.46 206.47 4.412 206.734 4.412C207.262 4.412 207.706 4.592 208.066 4.952C208.402 5.288 208.594 5.648 208.642 6.032C208.714 6.392 208.774 6.776 208.822 7.184C208.846 7.28 208.858 7.424 208.858 7.616C208.906 8.024 208.93 8.444 208.93 8.876C208.954 9.308 208.978 9.74 209.002 10.172C209.002 10.436 209.002 10.7 209.002 10.964C209.026 11.204 209.038 11.456 209.038 11.72C209.014 11.864 209.002 12.008 209.002 12.152C209.026 12.272 209.038 12.392 209.038 12.512V14.528C209.038 14.648 209.038 14.78 209.038 14.924C209.038 15.068 209.062 15.2 209.11 15.32C209.11 15.344 209.23 15.356 209.47 15.356C209.71 15.356 209.842 15.356 209.866 15.356C210.082 15.404 210.25 15.416 210.37 15.392H210.442ZM189.526 26.264C189.55 26.456 189.622 26.648 189.742 26.84C189.886 27.032 190.09 27.152 190.354 27.2L193.702 27.236C193.99 27.212 194.278 27.188 194.566 27.164C194.854 27.116 195.118 27.02 195.358 26.876C195.622 26.732 195.766 26.48 195.79 26.12C195.814 25.76 195.814 25.412 195.79 25.076V24.68C195.79 24.368 195.79 24.104 195.79 23.888C195.79 23.648 195.79 23.42 195.79 23.204C195.79 22.988 195.79 22.772 195.79 22.556C195.79 22.316 195.79 22.04 195.79 21.728V13.052C195.79 12.74 195.778 12.44 195.754 12.152C195.73 11.888 195.706 11.624 195.682 11.36C195.682 11.096 195.67 10.868 195.646 10.676C195.598 10.22 195.43 9.944 195.142 9.848C194.878 9.728 194.674 9.668 194.53 9.668H194.494L191.434 9.596C190.858 9.596 190.438 9.68 190.174 9.848C189.91 10.016 189.718 10.268 189.598 10.604C189.574 10.724 189.55 10.904 189.526 11.144C189.526 11.36 189.526 11.6 189.526 11.864C189.526 12.104 189.526 12.356 189.526 12.62C189.526 12.86 189.526 13.052 189.526 13.196V26.264Z" fill="#333333"/>
<g clip-path="url(#clip0)">
<path d="M4.54141 11C6.03597 13.2368 7.92938 17.3509 5.47058 19.5C7.74968 17.5175 8.52545 16.557 8.44656 13.3246C8.34575 9.50439 9.94113 6.86842 12.2991 4C7.81981 13.6316 21.3542 12.1491 18.3081 22.5263C22.1738 21.4167 19.1627 18.0614 21.1964 16.1711C21.8494 19.2675 24.5844 21.2281 24.9744 24.6667C25.4434 28.8509 20.3198 31.9912 16.1999 32.886C20.2541 30.8026 17.7821 26.5526 18.8296 25.4781C15.5425 27.1798 17.2956 29.1535 13.6228 29.9167C14.7185 23.7763 9.34944 26.2982 11.6198 19.9605C4.91833 27.0044 11.2209 32.8728 11.2209 32.8728C11.2209 32.8728 1.63117 34.6272 0.0270307 24.9561C-0.39811 17.5263 5.4662 19.114 4.54141 11Z" fill="url(#paint0_radial)"/>
</g>
<defs>
<radialGradient id="paint0_radial" cx="0" cy="0" r="1" gradientUnits="userSpaceOnUse" gradientTransform="translate(12.7696 -1.40855) scale(37.4052 37.4315)">
<stop offset="0.0664" stop-color="#FF8C00"/>
<stop offset="1" stop-color="#DA291C"/>
</radialGradient>
<clipPath id="clip0">
<rect width="25" height="29" fill="white" transform="translate(0 4)"/>
</clipPath>
</defs>
</svg>
