<svg width="233" height="36" viewBox="0 0 233 36" fill="none" xmlns="http://www.w3.org/2000/svg">
<path d="M64.5736 27.56C64.6536 27.5867 64.7336 27.6 64.8136 27.6C64.8936 27.5733 64.9736 27.56 65.0536 27.56C65.5069 27.6133 65.9203 27.7067 66.2936 27.84C66.6936 27.9467 67.0803 28.16 67.4536 28.48C67.8269 28.8533 68.0136 29.32 68.0136 29.88C68.0136 30.1733 67.9603 30.48 67.8536 30.8C67.7736 31.1467 67.6536 31.4133 67.4936 31.6C67.2803 31.8133 67.0136 31.9733 66.6936 32.08C66.3736 32.1867 66.0669 32.2533 65.7736 32.28C65.4803 32.3333 65.2136 32.36 64.9736 32.36C64.7603 32.36 64.6403 32.36 64.6136 32.36H42.2136C42.0803 32.36 41.9469 32.36 41.8136 32.36C41.6803 32.3867 41.5469 32.4 41.4136 32.4C40.8536 32.4267 40.2536 32.4133 39.6136 32.36C38.9736 32.3333 38.4269 32.1333 37.9736 31.76C37.4136 31.2533 37.1336 30.68 37.1336 30.04C37.1336 29.64 37.2536 29.2267 37.4936 28.8C37.7336 28.3733 38.0536 28.08 38.4536 27.92C38.9869 27.7067 39.5336 27.6 40.0936 27.6C40.6803 27.6 41.2669 27.5867 41.8536 27.56H42.0536C44.3736 27.5067 46.7603 27.5067 49.2136 27.56L49.1736 21.72C48.3736 21.6667 47.5869 21.5733 46.8136 21.44C46.0403 21.3067 45.2936 21.0933 44.5736 20.8C43.8536 20.5067 43.1736 20.1333 42.5336 19.68C41.9203 19.2 41.3736 18.6133 40.8936 17.92C40.2803 17.0933 39.8669 16.2133 39.6536 15.28C39.4669 14.3467 39.3736 13.3733 39.3736 12.36C39.3736 10.28 39.9203 8.54666 41.0136 7.16C42.1336 5.74667 43.6536 4.73333 45.5736 4.12C46.8536 3.69333 48.1469 3.42666 49.4536 3.32C50.7869 3.18666 52.1203 3.17333 53.4536 3.28C54.5469 3.36 55.6403 3.46667 56.7336 3.6C57.8269 3.73333 58.8803 4.02667 59.8936 4.48C60.3469 4.69333 60.7869 4.94666 61.2136 5.24C61.6403 5.53333 62.0403 5.88 62.4136 6.28C63.3469 7.29333 63.9869 8.38667 64.3336 9.56C64.6803 10.7333 64.8003 11.9867 64.6936 13.32C64.5869 14.84 64.2269 16.1333 63.6136 17.2C63.0003 18.24 62.2136 19.1067 61.2536 19.8C60.3203 20.4667 59.2403 20.96 58.0136 21.28C56.8136 21.6 55.5603 21.76 54.2536 21.76L54.3336 27.56C55.0803 27.56 55.7603 27.56 56.3736 27.56C56.9869 27.5333 57.5869 27.52 58.1736 27.52C58.7603 27.52 59.3469 27.52 59.9336 27.52C60.5203 27.52 61.1603 27.5333 61.8536 27.56C62.3336 27.5867 62.8003 27.5867 63.2536 27.56C63.7069 27.5067 64.1469 27.5067 64.5736 27.56ZM59.4536 13.92C59.5336 13.5733 59.5603 13.24 59.5336 12.92C59.4803 11.5333 59.0403 10.5067 58.2136 9.84C57.4136 9.14667 56.3736 8.72 55.0936 8.56C54.3469 8.48 53.4269 8.4 52.3336 8.32C51.2403 8.21333 50.1603 8.24 49.0936 8.4C48.0536 8.56 47.1336 8.89333 46.3336 9.4C45.5336 9.88 45.0536 10.6533 44.8936 11.72C44.8136 12.36 44.8136 12.9733 44.8936 13.56C45.0003 14.1467 45.2269 14.6667 45.5736 15.12C45.9203 15.5733 46.4003 15.96 47.0136 16.28C47.6269 16.6 48.4136 16.8 49.3736 16.88C50.3069 16.9867 51.2536 17.08 52.2136 17.16C53.2003 17.24 54.1603 17.1867 55.0936 17C55.5469 16.92 56.0003 16.8133 56.4536 16.68C56.9336 16.52 57.3736 16.32 57.7736 16.08C58.1736 15.84 58.5203 15.5467 58.8136 15.2C59.1069 14.8267 59.3203 14.4 59.4536 13.92ZM95.5945 31.6C96.0212 31.6533 96.3945 31.76 96.7145 31.92C97.0345 32.08 97.2612 32.3733 97.3945 32.8C97.7145 33.76 97.3679 34.44 96.3545 34.84C96.0345 34.9733 95.7145 35.0533 95.3945 35.08C95.0745 35.1067 94.7679 35.12 94.4745 35.12H75.8745C75.3412 35.12 74.7812 35.1067 74.1945 35.08C73.6345 35.08 73.0612 35.0667 72.4745 35.04C71.9145 35.0133 71.4479 34.8133 71.0745 34.44C70.7012 34.0667 70.4879 33.5733 70.4345 32.96L70.3145 30.16C70.2879 29.8667 70.3145 29.52 70.3945 29.12C70.5012 28.72 70.6745 28.3867 70.9145 28.12C71.2879 27.72 71.7545 27.4667 72.3145 27.36C72.8745 27.2267 73.4479 27.16 74.0345 27.16C74.4079 27.16 74.9812 27.16 75.7545 27.16C76.5545 27.16 77.6479 27.16 79.0345 27.16C80.4212 27.1333 82.1679 27.12 84.2745 27.12C86.4079 27.12 88.9945 27.12 92.0345 27.12V25.6H73.1545C72.8879 25.6 72.6479 25.6 72.4345 25.6C72.2212 25.6 72.0079 25.5733 71.7945 25.52C71.5545 25.4667 71.3412 25.4133 71.1545 25.36C70.9679 25.3067 70.8079 25.1733 70.6745 24.96C70.3012 24.4 70.2079 23.8267 70.3945 23.24C70.4745 23.0267 70.5945 22.8667 70.7545 22.76C70.9145 22.6267 71.1012 22.52 71.3145 22.44C71.5279 22.36 71.7279 22.3067 71.9145 22.28C72.1279 22.2533 72.3145 22.2267 72.4745 22.2C72.8745 22.12 73.2879 22.08 73.7145 22.08C74.1145 22.08 74.5145 22.08 74.9145 22.08C75.3412 22.08 75.8479 22.08 76.4345 22.08C77.0479 22.08 77.7679 22.0933 78.5945 22.12C79.4479 22.12 80.5012 22.12 81.7545 22.12C83.0079 22.12 84.5012 22.12 86.2345 22.12C87.9679 22.12 90.0345 22.12 92.4345 22.12C93.7945 22.12 94.8345 22.3333 95.5545 22.76C96.2745 23.16 96.6345 23.8267 96.6345 24.76V27.84C96.6345 28.2133 96.5412 28.5867 96.3545 28.96C96.1945 29.3067 95.9012 29.6 95.4745 29.84C95.1279 30.0533 94.7812 30.16 94.4345 30.16C94.0879 30.1867 93.7412 30.2 93.3945 30.2H75.2345V31.6H95.5945ZM73.3145 2.6C73.6345 2.46666 73.9412 2.4 74.2345 2.4C74.3679 2.4 74.5145 2.41333 74.6745 2.44C74.8345 2.44 74.9812 2.46667 75.1145 2.52C75.5945 2.65333 75.9545 2.89333 76.1945 3.24C76.4079 3.53333 76.5545 3.84 76.6345 4.16C76.6879 4.37333 76.7279 4.6 76.7545 4.84C76.7812 5.08 76.8079 5.32 76.8345 5.56L77.0745 8.04C77.1012 8.28 77.1012 8.45333 77.0745 8.56C77.0479 8.66667 77.0879 8.82667 77.1945 9.04C77.2745 9.25333 77.3679 9.4 77.4745 9.48C77.6079 9.53333 77.7545 9.57333 77.9145 9.6C78.0745 9.6 78.2345 9.58666 78.3945 9.56C78.5545 9.53333 78.7145 9.53333 78.8745 9.56H90.4745C90.7679 9.53333 91.0745 9.53333 91.3945 9.56C91.7145 9.56 92.0345 9.56 92.3545 9.56C92.8345 9.56 93.3545 9.64 93.9145 9.8C94.5012 9.93333 94.9545 10.2667 95.2745 10.8C95.5412 11.2267 95.6212 11.5867 95.5145 11.88C95.4079 12.1467 95.1545 12.4533 94.7545 12.8C94.4345 13.0667 94.0612 13.2667 93.6345 13.4C93.2345 13.5067 92.8212 13.5867 92.3945 13.64C91.9679 13.6667 91.5279 13.68 91.0745 13.68C90.6479 13.68 90.2345 13.68 89.8345 13.68C89.6212 13.68 89.3945 13.68 89.1545 13.68C88.9145 13.6533 88.6879 13.6533 88.4745 13.68H87.1145C86.9012 13.68 86.4212 13.68 85.6745 13.68C84.9545 13.68 84.1812 13.68 83.3545 13.68C82.5279 13.68 81.7412 13.68 80.9945 13.68C80.2745 13.68 79.8079 13.68 79.5945 13.68C79.1945 13.6533 78.7812 13.6533 78.3545 13.68C77.9279 13.68 77.5012 13.68 77.0745 13.68C76.6212 13.68 76.1279 13.68 75.5945 13.68C75.0879 13.6533 74.5945 13.5733 74.1145 13.44C73.6612 13.3067 73.2479 13.0933 72.8745 12.8C72.5012 12.5067 72.2345 12.08 72.0745 11.52C71.9679 11.2267 71.8745 10.9733 71.7945 10.76C71.7412 10.52 71.7145 10.2533 71.7145 9.96C71.7412 9.82666 71.7545 9.54667 71.7545 9.12C71.7545 8.69333 71.7412 8.24 71.7145 7.76C71.7145 7.25333 71.7012 6.78667 71.6745 6.36C71.6745 5.93333 71.6745 5.65333 71.6745 5.52C71.7279 5.17333 71.7945 4.84 71.8745 4.52C71.9545 4.17333 72.0745 3.85333 72.2345 3.56C72.3412 3.4 72.5012 3.24 72.7145 3.08C72.9545 2.89333 73.1545 2.73333 73.3145 2.6ZM71.9945 15.88C72.2079 15.8533 72.4479 15.84 72.7145 15.84C73.0079 15.8133 73.2879 15.8 73.5545 15.8H74.5145H83.1545C84.5412 15.7733 85.9012 15.76 87.2345 15.76C88.3812 15.76 89.5679 15.76 90.7945 15.76C92.0479 15.76 93.1145 15.7733 93.9945 15.8H94.1545C94.6879 15.8267 95.2212 15.84 95.7545 15.84C96.2879 15.84 96.8079 15.9333 97.3145 16.12C98.1412 16.4667 98.5545 17.04 98.5545 17.84C98.5545 18.5067 98.2879 19.04 97.7545 19.44C97.3545 19.8133 96.8479 20.0267 96.2345 20.08C95.6212 20.1333 95.0479 20.1333 94.5145 20.08H71.9545C71.9279 20.08 71.8079 20.08 71.5945 20.08C71.3812 20.08 71.1279 20.0533 70.8345 20C70.5679 19.9467 70.2879 19.88 69.9945 19.8C69.7012 19.6933 69.4612 19.5333 69.2745 19.32C69.1145 19.16 68.9945 18.96 68.9145 18.72C68.8345 18.48 68.7945 18.24 68.7945 18C68.7945 17.4667 68.9679 17.0267 69.3145 16.68C69.6612 16.36 70.0079 16.1733 70.3545 16.12C70.7279 16.04 71.1145 15.9733 71.5145 15.92C71.5945 15.92 71.6745 15.92 71.7545 15.92C71.8345 15.8933 71.9145 15.88 71.9945 15.88ZM103.362 19.72C102.295 18.9733 101.535 17.9067 101.082 16.52C100.815 15.8267 100.628 15.16 100.522 14.52C100.442 13.88 100.402 13.2267 100.402 12.56C100.402 11.8667 100.455 11.2267 100.562 10.64C100.695 10.0267 100.868 9.42667 101.082 8.84C101.348 8.28 101.628 7.76 101.922 7.28C102.242 6.77333 102.615 6.33333 103.042 5.96C103.468 5.50667 103.908 5.12 104.362 4.8C104.842 4.48 105.388 4.21333 106.002 4C106.535 3.73333 107.108 3.54667 107.722 3.44C108.362 3.30667 109.028 3.24 109.722 3.24C110.202 3.16 110.668 3.16 111.122 3.24C111.335 3.24 111.562 3.25333 111.802 3.28C112.068 3.30666 112.308 3.34666 112.522 3.4C112.628 3.45333 112.735 3.48 112.842 3.48C112.975 3.48 113.108 3.50667 113.242 3.56C113.375 3.56 113.495 3.58667 113.602 3.64C113.735 3.66666 113.842 3.70667 113.922 3.76C114.215 3.84 114.482 3.93333 114.722 4.04C114.988 4.12 115.255 4.22667 115.522 4.36C115.975 4.57333 116.428 4.81333 116.882 5.08C117.042 5.16 117.215 5.28 117.402 5.44C117.615 5.6 117.815 5.77333 118.002 5.96C118.482 6.44 118.868 6.93333 119.162 7.44C119.322 7.70667 119.455 7.98667 119.562 8.28C119.695 8.57333 119.788 8.89333 119.842 9.24C119.922 9.53333 119.988 9.84 120.042 10.16C120.095 10.4533 120.148 10.7467 120.202 11.04C120.255 11.3333 120.295 11.6267 120.322 11.92C120.348 12.2133 120.335 12.5333 120.282 12.88C120.282 13.04 120.268 13.2267 120.242 13.44C120.215 13.6267 120.202 13.8 120.202 13.96C120.148 14.1733 120.108 14.3867 120.082 14.6C120.055 14.8133 120.002 15 119.922 15.16C119.762 16.2 119.428 17.16 118.922 18.04C118.628 18.4933 118.295 18.8933 117.922 19.24C117.575 19.5867 117.175 19.92 116.722 20.24C116.375 20.4533 116.028 20.64 115.682 20.8C115.335 20.96 114.975 21.08 114.602 21.16C114.255 21.2667 113.895 21.36 113.522 21.44C113.175 21.4933 112.815 21.56 112.442 21.64C112.308 21.6933 112.175 21.72 112.042 21.72C111.908 21.72 111.775 21.72 111.642 21.72C111.562 21.72 111.455 21.72 111.322 21.72C111.215 21.72 111.095 21.7467 110.962 21.8H110.242C110.135 21.8 110.015 21.8 109.882 21.8C109.775 21.8 109.655 21.7733 109.522 21.72C109.362 21.72 109.188 21.72 109.002 21.72C108.842 21.72 108.682 21.6933 108.522 21.64C108.308 21.64 108.108 21.6267 107.922 21.6C107.762 21.5733 107.588 21.56 107.402 21.56C106.682 21.4533 105.988 21.24 105.322 20.92C104.948 20.7333 104.602 20.56 104.282 20.4C103.962 20.2133 103.655 19.9867 103.362 19.72ZM129.162 10.36C129.215 10.8933 129.242 11.44 129.242 12C129.242 12.56 129.242 13.1467 129.242 13.76V20.24C129.242 20.8533 129.242 21.4267 129.242 21.96C129.242 22.4933 129.215 23.0133 129.162 23.52V28.08C129.108 28.5067 129.095 28.9333 129.122 29.36C129.148 29.76 129.162 30.1467 129.162 30.52C129.162 30.7867 129.162 31.04 129.162 31.28C129.162 31.52 129.135 31.7467 129.082 31.96C129.082 32.3867 128.988 32.7333 128.802 33C128.748 33.1333 128.695 33.24 128.642 33.32C128.588 33.4267 128.535 33.5467 128.482 33.68C128.375 33.76 128.268 33.8533 128.162 33.96C128.055 34.0667 127.895 34.16 127.682 34.24C127.442 34.4267 127.162 34.5467 126.842 34.6C126.522 34.6533 126.188 34.6533 125.842 34.6C125.388 34.4933 125.055 34.32 124.842 34.08C124.628 33.9467 124.428 33.6667 124.242 33.24C124.162 33.0533 124.095 32.88 124.042 32.72C123.988 32.56 123.962 32.3867 123.962 32.2C123.908 32.0667 123.868 31.9333 123.842 31.8C123.815 31.6667 123.802 31.56 123.802 31.48V31.04L123.722 7.32C123.722 6.97333 123.722 6.62666 123.722 6.28C123.748 5.93333 123.802 5.54667 123.882 5.12C123.962 4.4 124.202 3.81333 124.602 3.36C124.975 3.09333 125.268 2.92 125.482 2.84C125.668 2.78666 125.842 2.76 126.002 2.76C126.188 2.76 126.388 2.76 126.602 2.76C126.815 2.76 127.028 2.78666 127.242 2.84C127.455 2.89333 127.668 2.98666 127.882 3.12C128.228 3.38666 128.482 3.72 128.642 4.12C128.775 4.41333 128.882 4.70667 128.962 5C129.042 5.29333 129.082 5.58667 129.082 5.88C129.082 6.17333 129.082 6.49333 129.082 6.84C129.082 7.16 129.108 7.46667 129.162 7.76V10.36ZM120.362 26.2C120.708 26.3067 121.015 26.4533 121.282 26.64C121.548 26.9067 121.748 27.1733 121.882 27.44C122.042 27.7067 122.122 28 122.122 28.32C122.122 28.7733 121.975 29.1733 121.682 29.52C121.415 29.8667 121.122 30.0933 120.802 30.2C120.668 30.2533 120.535 30.2933 120.402 30.32C120.268 30.3467 120.135 30.36 120.002 30.36C119.842 30.4133 119.695 30.44 119.562 30.44C119.428 30.44 119.295 30.44 119.162 30.44H115.362C114.908 30.44 114.442 30.44 113.962 30.44C113.508 30.44 113.028 30.4667 112.522 30.52H109.722C109.242 30.4667 108.815 30.44 108.442 30.44C108.068 30.44 107.695 30.44 107.322 30.44H103.122C102.855 30.44 102.602 30.4267 102.362 30.4C102.122 30.3733 101.868 30.3333 101.602 30.28C101.468 30.2267 101.335 30.1733 101.202 30.12C101.095 30.0933 100.975 30.0533 100.842 30C100.602 29.92 100.375 29.8 100.162 29.64C100.002 29.4533 99.8684 29.2533 99.7617 29.04C99.6817 28.8 99.6417 28.5067 99.6417 28.16C99.6417 27.6533 99.8151 27.2 100.162 26.8C100.322 26.56 100.575 26.4 100.922 26.32C101.082 26.2667 101.242 26.2267 101.402 26.2C101.562 26.1467 101.708 26.0933 101.842 26.04C102.028 25.9867 102.175 25.96 102.282 25.96C102.388 25.96 102.495 25.96 102.602 25.96H117.722C117.988 25.96 118.242 25.96 118.482 25.96C118.722 25.96 118.948 25.9867 119.162 26.04C119.375 26.04 119.575 26.0533 119.762 26.08C119.948 26.1067 120.148 26.1467 120.362 26.2ZM105.722 11.84C105.642 12.3467 105.642 12.88 105.722 13.44C105.855 14.08 106.028 14.6 106.242 15C106.775 15.8267 107.562 16.44 108.602 16.84C108.975 16.9733 109.348 17.0667 109.722 17.12C110.122 17.1733 110.508 17.2 110.882 17.2C111.095 17.1467 111.295 17.12 111.482 17.12C111.668 17.12 111.868 17.0933 112.082 17.04C112.268 17.04 112.442 17 112.602 16.92C112.788 16.84 112.975 16.76 113.162 16.68C113.668 16.44 114.095 16.04 114.442 15.48C114.628 15.1867 114.762 14.9067 114.842 14.64C114.922 14.3733 115.002 14.0933 115.082 13.8C115.188 13.3467 115.215 12.92 115.162 12.52C115.135 12.12 115.055 11.6933 114.922 11.24C114.868 11.0533 114.788 10.88 114.682 10.72C114.602 10.5333 114.522 10.3733 114.442 10.24C114.362 10.16 114.295 10.08 114.242 10C114.188 9.89333 114.108 9.81333 114.002 9.76C113.922 9.57333 113.762 9.4 113.522 9.24C113.308 9.10666 113.095 9 112.882 8.92C112.775 8.84 112.655 8.77333 112.522 8.72C112.415 8.66667 112.295 8.61333 112.162 8.56C111.468 8.4 110.762 8.32 110.042 8.32C109.695 8.32 109.362 8.34666 109.042 8.4C108.722 8.45333 108.415 8.54666 108.122 8.68C107.828 8.81333 107.548 8.97333 107.282 9.16C107.015 9.32 106.775 9.54667 106.562 9.84C106.348 10.1067 106.175 10.4133 106.042 10.76C105.935 11.08 105.828 11.44 105.722 11.84ZM143.645 27.4C143.645 27.08 143.632 26.72 143.605 26.32C143.605 25.8933 143.658 25.52 143.765 25.2C143.845 24.5067 144.192 24.04 144.805 23.8C145.498 23.5067 146.165 23.3733 146.805 23.4C147.472 23.4 148.178 23.4 148.925 23.4H164.805C165.338 23.4 165.912 23.4 166.525 23.4C167.138 23.4 167.685 23.56 168.165 23.88C168.512 24.1467 168.738 24.5467 168.845 25.08C168.952 25.6133 169.005 26.0933 169.005 26.52C169.058 27.0533 169.085 27.6 169.085 28.16C169.085 28.72 169.085 29.2933 169.085 29.88C169.032 30.4667 169.018 31.08 169.045 31.72C169.072 32.36 168.978 32.9733 168.765 33.56C168.632 33.9867 168.378 34.2667 168.005 34.4C167.658 34.56 167.285 34.6667 166.885 34.72H165.965L146.525 34.64C146.312 34.64 146.098 34.6533 145.885 34.68C145.672 34.7067 145.472 34.6933 145.285 34.64C144.992 34.56 144.698 34.4267 144.405 34.24C144.058 34.0267 143.845 33.6933 143.765 33.24C143.712 33.08 143.672 32.9067 143.645 32.72C143.645 32.5333 143.645 32.3733 143.645 32.24V27.4ZM141.965 7.6C141.538 7.41333 141.285 7.13333 141.205 6.76C141.045 6.36 140.965 5.96 140.965 5.56C140.992 5.16 141.152 4.8 141.445 4.48C141.738 4.16 142.032 3.94667 142.325 3.84C142.618 3.73333 142.992 3.68 143.445 3.68H155.805C156.338 3.68 156.792 3.69333 157.165 3.72C157.565 3.72 157.938 3.76 158.285 3.84C158.978 3.97333 159.512 4.22666 159.885 4.6C160.258 4.94666 160.405 5.50666 160.325 6.28C160.272 6.41333 160.232 6.54667 160.205 6.68C160.178 6.78667 160.138 6.90667 160.085 7.04C159.872 7.44 159.592 7.69333 159.245 7.8C158.898 7.88 158.525 7.92 158.125 7.92C157.912 7.97333 157.738 8 157.605 8C157.498 8 157.338 8 157.125 8C156.965 8 156.778 7.98667 156.565 7.96C156.378 7.93333 156.205 7.92 156.045 7.92H153.445C153.445 8.34667 153.432 8.72 153.405 9.04C153.378 9.36 153.365 9.64 153.365 9.88C153.365 10.1467 153.365 10.4 153.365 10.64C153.365 10.8533 153.392 11.0667 153.445 11.28V11.96C153.525 12.12 153.738 12.3333 154.085 12.6C154.298 12.76 154.472 12.9067 154.605 13.04C154.738 13.1467 154.872 13.2667 155.005 13.4C155.138 13.5067 155.272 13.6133 155.405 13.72C155.538 13.8267 155.672 13.9467 155.805 14.08C155.938 14.2133 156.072 14.3467 156.205 14.48C156.365 14.5867 156.512 14.72 156.645 14.88C156.725 14.96 156.805 15.0533 156.885 15.16C156.992 15.24 157.072 15.32 157.125 15.4L157.605 15.88C157.872 16.12 158.125 16.3867 158.365 16.68C158.605 16.9467 158.845 17.2267 159.085 17.52C159.592 18.1067 159.925 18.68 160.085 19.24C160.138 19.3733 160.178 19.5067 160.205 19.64C160.232 19.7467 160.218 19.8933 160.165 20.08C160.085 20.3467 159.912 20.5867 159.645 20.8C159.112 21.0667 158.632 21.2 158.205 21.2C157.912 21.2 157.632 21.1733 157.365 21.12C157.125 21.04 156.858 20.9333 156.565 20.8C156.298 20.72 156.058 20.6267 155.845 20.52C155.658 20.4133 155.485 20.2933 155.325 20.16C155.085 19.9467 154.845 19.76 154.605 19.6C154.365 19.4133 154.138 19.2133 153.925 19C153.712 18.7867 153.498 18.5733 153.285 18.36C153.098 18.1467 152.898 17.92 152.685 17.68C152.338 17.4133 152.018 17.08 151.725 16.68C151.512 16.52 151.312 16.36 151.125 16.2C150.965 16.04 150.778 15.88 150.565 15.72L149.005 17.28C148.872 17.36 148.765 17.4533 148.685 17.56C148.605 17.6667 148.525 17.76 148.445 17.84C148.258 18 148.085 18.1867 147.925 18.4C147.765 18.5867 147.578 18.7867 147.365 19C147.205 19.16 147.018 19.3333 146.805 19.52C146.618 19.7067 146.392 19.8933 146.125 20.08C145.058 20.8267 144.045 21.2 143.085 21.2H142.765C142.658 21.2 142.552 21.1733 142.445 21.12C141.832 21.04 141.445 20.8267 141.285 20.48C141.098 20.1067 141.045 19.7733 141.125 19.48C141.205 19.0267 141.312 18.7067 141.445 18.52C141.525 18.3333 141.632 18.1733 141.765 18.04C141.898 17.9067 142.045 17.76 142.205 17.6C142.338 17.4667 142.458 17.3333 142.565 17.2C142.672 17.0667 142.792 16.9333 142.925 16.8C143.058 16.6667 143.218 16.5067 143.405 16.32C143.618 16.1067 143.845 15.88 144.085 15.64C144.325 15.4 144.565 15.16 144.805 14.92C145.072 14.6533 145.352 14.4 145.645 14.16C145.885 13.92 146.125 13.68 146.365 13.44C146.632 13.2 146.885 12.9733 147.125 12.76L147.925 11.96V7.92H145.405C145.245 7.92 145.072 7.93333 144.885 7.96C144.698 7.98667 144.485 8 144.245 8C144.032 8 143.818 8 143.605 8C143.418 8 143.218 7.97333 143.005 7.92C142.792 7.86667 142.605 7.82667 142.445 7.8C142.285 7.74667 142.125 7.68 141.965 7.6ZM159.085 10.48C159.218 10.3467 159.365 10.2533 159.525 10.2C159.712 10.12 159.952 10.04 160.245 9.96C160.298 9.96 160.378 9.94666 160.485 9.92C160.592 9.89333 160.752 9.88 160.965 9.88H162.285C162.525 9.88 162.765 9.86667 163.005 9.84C163.245 9.81333 163.472 9.8 163.685 9.8H164.405V5.56C164.405 5.42667 164.418 5.29333 164.445 5.16C164.472 5 164.512 4.85333 164.565 4.72C164.565 4.58667 164.578 4.48 164.605 4.4C164.658 4.32 164.712 4.21333 164.765 4.08C164.765 4 164.792 3.92 164.845 3.84C164.925 3.73333 165.005 3.61333 165.085 3.48C165.218 3.29333 165.512 3.10667 165.965 2.92C166.152 2.86667 166.338 2.84 166.525 2.84C166.738 2.84 166.965 2.84 167.205 2.84C167.418 2.89333 167.605 2.96 167.765 3.04C167.952 3.09333 168.125 3.16 168.285 3.24C168.578 3.37333 168.792 3.6 168.925 3.92C169.005 4.05333 169.058 4.21333 169.085 4.4C169.138 4.58667 169.192 4.8 169.245 5.04V13.6C169.245 14.5333 169.245 15.4933 169.245 16.48C169.245 17.44 169.205 18.3867 169.125 19.32C169.125 19.4 169.112 19.5467 169.085 19.76C169.085 19.9733 169.058 20.1467 169.005 20.28C168.952 20.3867 168.898 20.4933 168.845 20.6C168.818 20.7067 168.765 20.8267 168.685 20.96C168.525 21.2 168.312 21.3867 168.045 21.52C167.725 21.7333 167.338 21.84 166.885 21.84C166.458 21.84 166.018 21.7067 165.565 21.44C165.192 21.1733 164.978 20.9067 164.925 20.64C164.845 20.5067 164.765 20.3733 164.685 20.24C164.605 20.08 164.565 19.9333 164.565 19.8C164.512 19.64 164.485 19.4933 164.485 19.36C164.485 19.2267 164.458 19.08 164.405 18.92V14.24H162.285C161.912 14.24 161.552 14.2267 161.205 14.2C160.885 14.1733 160.565 14.16 160.245 14.16C159.605 14.08 159.138 13.7733 158.845 13.24C158.685 13 158.605 12.68 158.605 12.28C158.605 12.0667 158.618 11.8667 158.645 11.68C158.672 11.4933 158.685 11.3333 158.685 11.2C158.765 10.9067 158.898 10.6667 159.085 10.48ZM150.645 27.84C150.432 27.8667 150.178 27.88 149.885 27.88C149.618 27.88 149.352 27.9067 149.085 27.96C148.818 27.9867 148.592 28.0533 148.405 28.16C148.218 28.2667 148.112 28.4533 148.085 28.72C148.085 28.88 148.085 29.0533 148.085 29.24C148.085 29.4 148.112 29.56 148.165 29.72V30.04C148.165 30.2 148.218 30.28 148.325 30.28C148.325 30.3333 148.405 30.36 148.565 30.36C148.618 30.4133 148.672 30.44 148.725 30.44C148.805 30.44 148.872 30.44 148.925 30.44H160.885C161.098 30.44 161.285 30.4267 161.445 30.4C161.605 30.3733 161.778 30.3867 161.965 30.44H162.845C163.218 30.44 163.552 30.4 163.845 30.32C164.165 30.2667 164.352 30.04 164.405 29.64V28.96C164.405 28.64 164.325 28.4 164.165 28.24C164.032 28.1067 163.912 28.0133 163.805 27.96C163.725 27.88 163.605 27.84 163.445 27.84H150.645ZM171.908 19.68C171.535 19.4667 171.241 19.1467 171.028 18.72C170.815 18.2933 170.788 17.8133 170.948 17.28C171.081 17.0133 171.201 16.7467 171.308 16.48C171.415 16.2133 171.548 15.9733 171.708 15.76C172.188 14.96 172.748 14.24 173.388 13.6C174.055 12.9333 174.655 12.2133 175.188 11.44C175.828 10.6667 176.401 9.94667 176.908 9.28C177.441 8.61333 178.015 7.85333 178.628 7C178.601 6.73333 178.588 6.46667 178.588 6.2C178.588 5.98667 178.588 5.77333 178.588 5.56C178.588 5.34667 178.601 5.17333 178.628 5.04C178.628 4.82667 178.655 4.64 178.708 4.48C178.761 4.29333 178.815 4.09333 178.868 3.88C178.948 3.50666 179.161 3.21333 179.508 3C179.668 2.89333 179.841 2.81333 180.028 2.76C180.215 2.70667 180.468 2.68 180.788 2.68C181.001 2.68 181.215 2.69333 181.428 2.72C181.641 2.72 181.828 2.74667 181.988 2.8C182.201 2.85333 182.401 2.97333 182.588 3.16C182.801 3.34667 182.961 3.54667 183.068 3.76C183.121 3.89333 183.161 4.04 183.188 4.2C183.215 4.36 183.241 4.50667 183.268 4.64C183.295 4.8 183.308 4.97333 183.308 5.16V7.12C183.468 7.38667 183.628 7.66667 183.788 7.96C183.921 8.2 184.068 8.45333 184.228 8.72C184.415 8.98667 184.575 9.21333 184.708 9.4C185.028 9.82667 185.308 10.2267 185.548 10.6C185.815 10.9733 186.108 11.32 186.428 11.64C186.748 12.0133 187.055 12.3867 187.348 12.76C187.668 13.1333 187.935 13.4933 188.148 13.84C188.361 14.1067 188.561 14.36 188.748 14.6C188.935 14.8133 189.135 15.0533 189.348 15.32C189.508 15.6667 189.655 16 189.788 16.32C189.948 16.64 190.055 16.96 190.108 17.28C190.161 17.6 190.175 17.88 190.148 18.12C190.148 18.36 190.068 18.5867 189.908 18.8C189.641 19.28 189.308 19.5733 188.908 19.68C188.695 19.7867 188.481 19.8667 188.268 19.92C188.055 19.9467 187.801 19.9333 187.508 19.88C186.948 19.7467 186.521 19.5333 186.228 19.24C185.695 18.7333 185.201 18.2133 184.748 17.68C184.295 17.1467 183.881 16.6133 183.508 16.08C183.055 15.5467 182.615 14.9733 182.188 14.36C181.788 13.7467 181.361 13.1333 180.908 12.52C180.695 12.8133 180.468 13.1067 180.228 13.4C179.988 13.6933 179.788 13.9467 179.628 14.16C179.415 14.32 179.215 14.5067 179.028 14.72C178.841 14.9333 178.641 15.1733 178.428 15.44C178.215 15.6533 177.975 15.9333 177.708 16.28C177.468 16.6 177.241 16.8667 177.028 17.08C176.788 17.3467 176.535 17.64 176.268 17.96C176.001 18.2533 175.721 18.5333 175.428 18.8C175.161 19.0667 174.881 19.3067 174.588 19.52C174.295 19.7067 173.988 19.8267 173.668 19.88C173.348 19.9867 173.041 20.0133 172.748 19.96C172.481 19.88 172.201 19.7867 171.908 19.68ZM173.908 34.16C173.801 34.0533 173.695 33.92 173.588 33.76C173.508 33.6 173.441 33.4133 173.388 33.2C173.388 32.9867 173.361 32.7867 173.308 32.6C173.281 32.44 173.268 32.28 173.268 32.12C173.268 31.9067 173.255 31.6667 173.228 31.4C173.228 31.16 173.201 30.9333 173.148 30.72V29.28V27.24C173.148 26.92 173.148 26.5867 173.148 26.24C173.175 25.8667 173.215 25.52 173.268 25.2C173.321 24.9867 173.375 24.8 173.428 24.64C173.481 24.48 173.575 24.3333 173.708 24.2C173.815 24.04 173.935 23.92 174.068 23.84C174.228 23.76 174.388 23.6667 174.548 23.56C175.241 23.2667 176.001 23.12 176.828 23.12H194.908C195.201 23.12 195.388 23.1467 195.468 23.2C195.548 23.2267 195.721 23.24 195.988 23.24C196.281 23.2933 196.535 23.3467 196.748 23.4C196.988 23.4533 197.241 23.5467 197.508 23.68C198.041 23.8667 198.401 24.2267 198.588 24.76C198.641 24.9733 198.695 25.2133 198.748 25.48C198.801 25.72 198.855 25.9867 198.908 26.28V27.88V29.64C198.908 29.96 198.908 30.2667 198.908 30.56C198.908 30.88 198.881 31.1867 198.828 31.48C198.828 32.12 198.708 32.6533 198.468 33.08C198.468 33.24 198.441 33.3867 198.388 33.52C198.361 33.6533 198.321 33.8 198.268 33.96C198.161 34.12 197.948 34.2667 197.628 34.4C197.468 34.4533 197.308 34.4933 197.148 34.52C197.015 34.5733 196.881 34.6 196.748 34.6H195.788H176.308C176.095 34.5467 175.895 34.5067 175.708 34.48C175.521 34.48 175.321 34.48 175.108 34.48C174.655 34.48 174.335 34.3733 174.148 34.16H173.908ZM177.908 29.84C177.908 29.9467 177.921 30.0133 177.948 30.04C178.001 30.0667 178.028 30.1067 178.028 30.16C178.081 30.16 178.135 30.1733 178.188 30.2C178.241 30.2533 178.295 30.28 178.348 30.28H178.668H179.228H190.908H191.988C192.148 30.3333 192.295 30.36 192.428 30.36C192.561 30.36 192.708 30.36 192.868 30.36C193.028 30.36 193.188 30.36 193.348 30.36C193.508 30.36 193.668 30.3333 193.828 30.28C193.961 30.28 194.108 30.2 194.268 30.04C194.268 29.9867 194.281 29.92 194.308 29.84C194.361 29.7333 194.388 29.6267 194.388 29.52V28.76C194.388 28.6 194.375 28.4667 194.348 28.36C194.348 28.2267 194.281 28.1067 194.148 28C194.015 27.7867 193.761 27.68 193.388 27.68H192.548H182.148H180.508H178.788H178.228C178.175 27.7333 178.121 27.7867 178.068 27.84C178.041 27.8933 178.028 27.9867 178.028 28.12C177.975 28.2267 177.935 28.32 177.908 28.4C177.908 28.4533 177.908 28.5333 177.908 28.64V29.2V29.28V29.52V29.84ZM198.988 18.24C198.935 18.4267 198.881 18.6 198.828 18.76C198.775 18.8933 198.748 19.0133 198.748 19.12C198.695 19.2533 198.641 19.3867 198.588 19.52C198.535 19.6533 198.455 19.7733 198.348 19.88C198.295 19.9867 198.215 20.0933 198.108 20.2C198.001 20.3067 197.855 20.4133 197.668 20.52C197.508 20.6533 197.321 20.7467 197.108 20.8C196.921 20.8267 196.748 20.84 196.588 20.84C196.375 20.84 196.161 20.8 195.948 20.72C195.735 20.64 195.521 20.5467 195.308 20.44C195.148 20.3067 195.001 20.1733 194.868 20.04C194.761 19.88 194.655 19.72 194.548 19.56C194.335 19.08 194.228 18.64 194.228 18.24C194.175 17.9733 194.135 17.7333 194.108 17.52C194.081 17.28 194.041 17.0267 193.988 16.76C193.988 16.4667 193.988 16.2133 193.988 16C194.015 15.76 194.055 15.5067 194.108 15.24V13.84V10.36V5.48C194.108 5.32 194.121 5.17333 194.148 5.04C194.201 4.88 194.228 4.74667 194.228 4.64C194.361 4.16 194.575 3.72 194.868 3.32C194.975 3.16 195.108 3.02667 195.268 2.92C195.428 2.81333 195.588 2.73333 195.748 2.68C195.961 2.62666 196.175 2.6 196.388 2.6C196.601 2.57333 196.815 2.56 197.028 2.56C197.481 2.69333 197.801 2.82666 197.988 2.96C198.201 3.06666 198.388 3.25333 198.548 3.52C198.735 3.89333 198.855 4.32 198.908 4.8C198.988 5.28 199.028 5.77333 199.028 6.28C199.055 6.76 199.055 7.25333 199.028 7.76C199.001 8.26667 198.988 8.73333 198.988 9.16V16.4V18.24ZM227.735 31.84C228.162 31.8933 228.535 32 228.855 32.16C229.175 32.32 229.402 32.6133 229.535 33.04C229.855 34 229.508 34.68 228.495 35.08C228.175 35.2133 227.855 35.2933 227.535 35.32C227.215 35.3467 226.908 35.36 226.615 35.36H208.015C207.482 35.36 206.922 35.3467 206.335 35.32C205.775 35.32 205.202 35.3067 204.615 35.28C204.055 35.2533 203.588 35.0533 203.215 34.68C202.842 34.3067 202.628 33.8133 202.575 33.2L202.455 30.4C202.428 30.1067 202.428 29.76 202.455 29.36C202.482 28.96 202.615 28.6267 202.855 28.36C203.228 27.96 203.722 27.7067 204.335 27.6C204.975 27.4933 205.588 27.44 206.175 27.44C206.548 27.44 207.162 27.44 208.015 27.44C208.895 27.44 210.082 27.4533 211.575 27.48C213.068 27.48 214.908 27.48 217.095 27.48C219.308 27.48 221.935 27.48 224.975 27.48V26.04H205.295C205.028 26.04 204.788 26.04 204.575 26.04C204.362 26.04 204.148 26.0133 203.935 25.96C203.695 25.9067 203.482 25.8533 203.295 25.8C203.108 25.7467 202.948 25.6133 202.815 25.4C202.442 24.84 202.348 24.2667 202.535 23.68C202.615 23.4667 202.735 23.3067 202.895 23.2C203.055 23.0667 203.242 22.96 203.455 22.88C203.668 22.8 203.868 22.7467 204.055 22.72C204.268 22.6933 204.455 22.6667 204.615 22.64C205.015 22.56 205.428 22.52 205.855 22.52C206.228 22.52 206.628 22.52 207.055 22.52C207.508 22.52 208.042 22.5333 208.655 22.56C209.268 22.56 209.975 22.56 210.775 22.56C211.602 22.56 212.562 22.56 213.655 22.56C213.655 22.1867 213.668 21.8267 213.695 21.48C213.722 21.1067 213.735 20.7067 213.735 20.28C213.122 20.28 212.575 20.28 212.095 20.28C211.642 20.28 211.188 20.28 210.735 20.28C210.308 20.28 209.868 20.28 209.415 20.28C208.962 20.2533 208.455 20.2267 207.895 20.2C207.655 20.2 207.308 20.1867 206.855 20.16C206.402 20.1333 205.922 20.12 205.415 20.12C204.908 20.0933 204.428 20.08 203.975 20.08C203.548 20.0533 203.242 20.04 203.055 20.04C202.628 19.9867 202.282 19.9333 202.015 19.88C201.775 19.8267 201.482 19.64 201.135 19.32C200.948 19.16 200.815 19 200.735 18.84C200.655 18.6533 200.615 18.4133 200.615 18.12C200.615 17.5333 200.788 17.0667 201.135 16.72C201.322 16.5067 201.575 16.3467 201.895 16.24C202.215 16.1333 202.522 16.0667 202.815 16.04C203.108 15.9867 203.362 15.96 203.575 15.96C203.815 15.96 203.948 15.96 203.975 15.96H226.855C227.255 15.96 227.655 15.96 228.055 15.96C228.455 15.96 228.842 15.9733 229.215 16C229.588 16.0267 229.948 16.08 230.295 16.16C230.668 16.2133 231.002 16.3733 231.295 16.64C231.588 16.8533 231.748 17.1067 231.775 17.4C231.828 17.6667 231.855 17.96 231.855 18.28C231.855 18.68 231.735 18.9867 231.495 19.2C231.282 19.4133 230.975 19.5867 230.575 19.72C230.042 19.9333 229.442 20.0533 228.775 20.08C228.135 20.08 227.548 20.0933 227.015 20.12C225.682 20.1733 224.388 20.2133 223.135 20.24C221.908 20.2667 220.615 20.28 219.255 20.28C219.282 20.6533 219.282 21.04 219.255 21.44C219.228 21.8133 219.215 22.1867 219.215 22.56H225.375C226.735 22.56 227.775 22.7733 228.495 23.2C229.215 23.6 229.575 24.2667 229.575 25.2V28.04C229.575 28.4133 229.482 28.7867 229.295 29.16C229.135 29.5067 228.842 29.8 228.415 30.04C228.068 30.2533 227.722 30.36 227.375 30.36C227.028 30.3867 226.682 30.4 226.335 30.4H207.375V31.84H227.735ZM225.215 10.36C225.695 10.5733 226.122 10.8267 226.495 11.12C226.895 11.3867 227.295 11.68 227.695 12C228.148 12.3467 228.322 12.76 228.215 13.24C228.135 13.6933 227.828 14.1067 227.295 14.48C227.055 14.64 226.722 14.72 226.295 14.72C225.895 14.72 225.455 14.68 224.975 14.6C224.522 14.4933 224.055 14.36 223.575 14.2C223.122 14.04 222.708 13.88 222.335 13.72C221.802 13.48 221.242 13.24 220.655 13C220.068 12.7333 219.468 12.4667 218.855 12.2C218.268 11.9333 217.695 11.68 217.135 11.44C216.575 11.1733 216.055 10.9333 215.575 10.72C215.148 10.9333 214.735 11.12 214.335 11.28C213.988 11.4133 213.642 11.56 213.295 11.72C212.975 11.88 212.708 12 212.495 12.08C211.802 12.4267 211.175 12.7067 210.615 12.92C210.055 13.1333 209.428 13.3867 208.735 13.68C208.228 13.8933 207.695 14.12 207.135 14.36C206.602 14.6 206.042 14.6933 205.455 14.64C204.975 14.6133 204.508 14.5067 204.055 14.32C203.628 14.1067 203.362 13.76 203.255 13.28C203.175 12.7733 203.268 12.3333 203.535 11.96C203.828 11.56 204.242 11.2267 204.775 10.96L207.495 9.64C208.402 9.18667 209.308 8.74667 210.215 8.32C211.122 7.86667 212.095 7.41333 213.135 6.96H208.935C208.535 6.96 208.175 6.97333 207.855 7C207.562 7 207.215 6.97333 206.815 6.92C206.522 6.89333 206.202 6.88 205.855 6.88C205.535 6.88 205.228 6.81333 204.935 6.68C204.615 6.52 204.375 6.29333 204.215 6C204.082 5.76 204.002 5.48 203.975 5.16C203.948 4.84 204.002 4.54667 204.135 4.28C204.322 3.90667 204.655 3.62667 205.135 3.44C205.615 3.22666 206.095 3.12 206.575 3.12H207.495C207.895 3.14667 208.188 3.16 208.375 3.16C208.588 3.13333 208.908 3.12 209.335 3.12H222.895C223.322 3.12 223.802 3.12 224.335 3.12C224.895 3.09333 225.428 3.12 225.935 3.2C226.442 3.28 226.895 3.44 227.295 3.68C227.695 3.92 227.962 4.29333 228.095 4.8C228.255 5.41333 228.148 5.88 227.775 6.2C227.402 6.49333 226.922 6.70666 226.335 6.84C225.748 6.97333 225.122 7.05333 224.455 7.08C223.788 7.08 223.255 7.06667 222.855 7.04C222.055 7.01333 221.362 7.02667 220.775 7.08C220.215 7.13333 219.562 7.13333 218.815 7.08C219.348 7.37333 219.895 7.66667 220.455 7.96C221.042 8.22667 221.642 8.54667 222.255 8.92C222.762 9.13333 223.255 9.37333 223.735 9.64C224.215 9.88 224.708 10.12 225.215 10.36Z" fill="#333333"/>
<g clip-path="url(#clip0)">
<path d="M4.54135 11C6.03591 13.2368 7.92932 17.3509 5.47052 19.5C7.74962 17.5175 8.52539 16.557 8.4465 13.3246C8.34569 9.50439 9.94106 6.86842 12.2991 4C7.81975 13.6316 21.3541 12.1491 18.308 22.5263C22.1737 21.4167 19.1627 18.0614 21.1963 16.1711C21.8494 19.2675 24.5843 21.2281 24.9744 24.6667C25.4433 28.8509 20.3197 31.9912 16.1998 32.886C20.254 30.8026 17.7821 26.5526 18.8296 25.4781C15.5424 27.1798 17.2956 29.1535 13.6227 29.9167C14.7184 23.7763 9.34937 26.2982 11.6197 19.9605C4.91827 27.0044 11.2209 32.8728 11.2209 32.8728C11.2209 32.8728 1.63111 34.6272 0.0269697 24.9561C-0.398171 17.5263 5.46614 19.114 4.54135 11Z" fill="url(#paint0_radial)"/>
</g>
<defs>
<radialGradient id="paint0_radial" cx="0" cy="0" r="1" gradientUnits="userSpaceOnUse" gradientTransform="translate(12.7696 -1.40855) scale(37.4052 37.4315)">
<stop offset="0.0664" stop-color="#FF8C00"/>
<stop offset="1" stop-color="#DA291C"/>
</radialGradient>
<clipPath id="clip0">
<rect width="25" height="29" fill="white" transform="translate(0 4)"/>
</clipPath>
</defs>
</svg>
