<svg width="32" height="36" viewBox="0 0 32 36" fill="none" xmlns="http://www.w3.org/2000/svg">
<path d="M7.83333 0.666748H9.66667C10.1529 0.666748 10.6192 0.859902 10.963 1.20372C11.3068 1.54754 11.5 2.01385 11.5 2.50008V4.33341H20.6667V2.50008C20.6667 2.01385 20.8598 1.54754 21.2036 1.20372C21.5475 0.859902 22.0138 0.666748 22.5 0.666748H24.3333C24.8196 0.666748 25.2859 0.859902 25.6297 1.20372C25.9735 1.54754 26.1667 2.01385 26.1667 2.50008V4.33341C27.6254 4.33341 29.0243 4.91288 30.0558 5.94433C31.0872 6.97578 31.6667 8.37472 31.6667 9.83341V30.0001C31.6667 31.4588 31.0872 32.8577 30.0558 33.8892C29.0243 34.9206 27.6254 35.5001 26.1667 35.5001H6C4.54131 35.5001 3.14236 34.9206 2.11091 33.8892C1.07946 32.8577 0.5 31.4588 0.5 30.0001V9.83341C0.5 8.37472 1.07946 6.97578 2.11091 5.94433C3.14236 4.91288 4.54131 4.33341 6 4.33341V2.50008C6 2.01385 6.19315 1.54754 6.53697 1.20372C6.88079 0.859902 7.3471 0.666748 7.83333 0.666748ZM22.5 4.33341H24.3333V2.50008H22.5V4.33341ZM9.66667 4.33341V2.50008H7.83333V4.33341H9.66667ZM6 6.16675C5.02754 6.16675 4.09491 6.55306 3.40727 7.24069C2.71964 7.92832 2.33333 8.86095 2.33333 9.83341V11.6667H29.8333V9.83341C29.8333 8.86095 29.447 7.92832 28.7594 7.24069C28.0718 6.55306 27.1391 6.16675 26.1667 6.16675H6ZM2.33333 30.0001C2.33333 30.9725 2.71964 31.9052 3.40727 32.5928C4.09491 33.2804 5.02754 33.6667 6 33.6667H26.1667C27.1391 33.6667 28.0718 33.2804 28.7594 32.5928C29.447 31.9052 29.8333 30.9725 29.8333 30.0001V13.5001H2.33333V30.0001ZM17 20.8334H26.1667V30.0001H17V20.8334ZM18.8333 22.6667V28.1667H24.3333V22.6667H18.8333Z" fill="#999999"/>
</svg>
