<svg width="23" height="26" viewBox="0 0 23 26" fill="none" xmlns="http://www.w3.org/2000/svg">
<g clip-path="url(#clip0)">
<path d="M4.17843 6.27586C5.55343 8.28131 7.29536 11.9698 5.03327 13.8966C7.13004 12.1192 7.84375 11.258 7.77117 8.35995C7.67843 4.93497 9.14617 2.57169 11.3155 0C7.19456 8.63521 19.6462 7.30611 16.8438 16.6098C20.4002 15.6149 17.63 12.6068 19.501 10.912C20.1018 13.6881 22.6179 15.4459 22.9768 18.5287C23.4083 22.2801 18.6946 25.0956 14.9042 25.8978C18.6341 24.0299 16.3599 20.2196 17.3236 19.2562C14.2994 20.7819 15.9123 22.5514 12.5333 23.2356C13.5413 17.7305 8.60182 19.9915 10.6905 14.3094C4.5252 20.6246 10.3236 25.886 10.3236 25.886C10.3236 25.886 1.50101 27.4589 0.0252027 18.7883C-0.365926 12.127 5.02923 13.5505 4.17843 6.27586Z" fill="white"/>
</g>
<defs>
<clipPath id="clip0">
<rect width="23" height="26" fill="white"/>
</clipPath>
</defs>
</svg>
