<svg width="31" height="35" viewBox="0 0 31 35" fill="none" xmlns="http://www.w3.org/2000/svg">
<path d="M5.63132 8.44828C7.48458 11.1479 9.8324 16.1131 6.78349 18.7069C9.60958 16.3143 10.5715 15.155 10.4737 11.2538C10.3487 6.64322 12.327 3.46189 15.2509 0C9.69653 11.6243 26.4791 9.83515 22.702 22.3593C27.4954 21.0201 23.7618 16.9707 26.2835 14.6892C27.0933 18.4263 30.4846 20.7925 30.9683 24.9425C31.5498 29.9924 25.1965 33.7825 20.0878 34.8624C25.115 32.348 22.0498 27.2187 23.3487 25.9218C19.2726 27.9756 21.4465 30.3577 16.8922 31.2787C18.2509 23.868 11.5933 26.9117 14.4085 19.2627C6.09871 27.7639 13.9139 34.8465 13.9139 34.8465C13.9139 34.8465 2.02262 36.9639 0.0334912 25.2919C-0.493683 16.3249 6.77806 18.2411 5.63132 8.44828Z" fill="#999999"/>
</svg>
