<svg width="25" height="36" viewBox="0 0 25 36" fill="none" xmlns="http://www.w3.org/2000/svg">
<path d="M12.0833 7.83321C13.2989 7.83321 14.4647 8.31609 15.3242 9.17563C16.1838 10.0352 16.6667 11.201 16.6667 12.4165C16.6667 13.6321 16.1838 14.7979 15.3242 15.6574C14.4647 16.517 13.2989 16.9999 12.0833 16.9999C10.8677 16.9999 9.70196 16.517 8.84241 15.6574C7.98287 14.7979 7.49999 13.6321 7.49999 12.4165C7.49999 11.201 7.98287 10.0352 8.84241 9.17563C9.70196 8.31609 10.8677 7.83321 12.0833 7.83321ZM12.0833 9.66654C11.354 9.66654 10.6545 9.95627 10.1388 10.472C9.62305 10.9877 9.33332 11.6872 9.33332 12.4165C9.33332 13.1459 9.62305 13.8454 10.1388 14.3611C10.6545 14.8768 11.354 15.1665 12.0833 15.1665C12.8127 15.1665 13.5121 14.8768 14.0279 14.3611C14.5436 13.8454 14.8333 13.1459 14.8333 12.4165C14.8333 11.6872 14.5436 10.9877 14.0279 10.472C13.5121 9.95627 12.8127 9.66654 12.0833 9.66654ZM3.46665 17.6544L12.0833 31.826L20.7 17.6544C21.6293 16.1254 22.135 14.3766 22.1652 12.5876C22.1954 10.7986 21.7491 9.03383 20.872 7.47431C19.9948 5.9148 18.7186 4.61677 17.1741 3.71343C15.6296 2.81009 13.8726 2.33399 12.0833 2.33399C10.2941 2.33399 8.53704 2.81009 6.99257 3.71343C5.44809 4.61677 4.1718 5.9148 3.29468 7.47431C2.41756 9.03383 1.9712 10.7986 2.00143 12.5876C2.03165 14.3766 2.53736 16.1254 3.46665 17.6544ZM22.2657 18.6077L12.0833 35.3552L1.90099 18.6077C0.803044 16.8007 0.205669 14.7341 0.170168 12.6199C0.134666 10.5058 0.662315 8.42027 1.69897 6.5774C2.73562 4.73453 4.24395 3.20066 6.06915 2.13321C7.89436 1.06577 9.97072 0.503174 12.0852 0.503174C14.1996 0.503174 16.2759 1.06577 18.1012 2.13321C19.9264 3.20066 21.4347 4.73453 22.4713 6.5774C23.508 8.42027 24.0356 10.5058 24.0001 12.6199C23.9646 14.7341 23.3673 16.8007 22.2693 18.6077H22.2657Z" fill="#999999"/>
</svg>
